<svg width="20" height="20" viewBox="0 0 20 20" fill="none" xmlns="http://www.w3.org/2000/svg">
<g clip-path="url(#clip0_1_46)">
<path d="M11.7539 1.27266C11.7109 1.31406 11.6641 1.35664 11.6211 1.4C11.0977 1.30156 10.5547 1.25 10 1.25C5.16797 1.25 1.25 5.16797 1.25 10C1.25 14.832 5.16797 18.75 10 18.75C14.832 18.75 18.75 14.832 18.75 10C18.75 9.44531 18.6992 8.90234 18.6016 8.37891C18.6445 8.33594 18.6875 8.28906 18.7266 8.24609L19.6172 7.25391C19.8672 8.125 20 9.04688 20 10C20 15.5234 15.5234 20 10 20C4.47656 20 0 15.5234 0 10C0 4.47656 4.47656 0 10 0C10.9531 0 11.8398 0.133047 12.7461 0.381562L11.7539 1.27266ZM10.7617 4.10938L10.9258 5.08594C10.625 5.03125 10.3164 4.96484 9.96484 4.96484C7.23828 4.96484 4.96484 7.23828 4.96484 9.96484C4.96484 12.7617 7.23828 15 9.96484 15C12.7617 15 15 12.7617 15 9.96484C15 9.68359 14.9687 9.33984 14.9141 9.07422L15.8906 9.23828C15.9961 9.25391 16.1016 9.26562 16.207 9.27344C16.2344 9.51172 16.25 9.75391 16.25 9.96484C16.25 13.4531 13.4531 16.25 10 16.25C6.54688 16.25 3.75 13.4531 3.75 9.96484C3.75 6.54688 6.54688 3.71484 10 3.71484C10.2461 3.71484 10.4883 3.76406 10.7266 3.7918C10.7344 3.89766 10.7461 4.00391 10.7617 4.10938ZM13.3398 7.54297L10.4414 10.4414C10.1992 10.6875 9.80078 10.6875 9.55859 10.4414C9.3125 10.1992 9.3125 9.80078 9.55859 9.55859L12.457 6.66016L11.9961 3.91016C11.8906 3.27305 12.1172 2.62734 12.6016 2.19922L14.4961 0.483203C15.043 0.0280625 15.8555 0.258242 16.0508 0.914844L16.75 3.24805L19.0859 3.94922C19.7422 4.14453 19.9727 4.95703 19.5156 5.46875L17.8008 7.39844C17.3711 7.88281 16.7266 8.10938 16.0898 8.00391L13.3398 7.54297ZM14.4258 6.45703L16.2969 6.76953C16.5078 6.80469 16.7227 6.73047 16.8672 6.57031L18.2578 5.00391L16.4297 4.45703L14.4258 6.45703ZM15.543 3.57188L14.9961 1.74297L13.4297 3.13359C13.2695 3.27617 13.1953 3.49141 13.2305 3.70312L13.543 5.57422L15.543 3.57188Z" fill="#184869"/>
</g>
<defs>
<clipPath id="clip0_1_46">
<rect width="20" height="20" fill="white"/>
</clipPath>
</defs>
</svg>
