<svg width="18" height="20" viewBox="0 0 18 20" fill="none" xmlns="http://www.w3.org/2000/svg">
<g clip-path="url(#clip0_1_48)">
<path d="M4.375 0C4.71875 0 5 0.279844 5 0.625V2.5H12.5V0.625C12.5 0.279844 12.7812 0 13.125 0C13.4688 0 13.75 0.279844 13.75 0.625V2.5H15C16.3789 2.5 17.5 3.61914 17.5 5V17.5C17.5 18.8789 16.3789 20 15 20H2.5C1.11914 20 0 18.8789 0 17.5V5C0 3.61914 1.11914 2.5 2.5 2.5H3.75V0.625C3.75 0.279844 4.03125 0 4.375 0ZM16.25 7.5H1.25V17.5C1.25 18.1914 1.80977 18.75 2.5 18.75H15C15.6914 18.75 16.25 18.1914 16.25 17.5V7.5ZM15 3.75H2.5C1.80977 3.75 1.25 4.30859 1.25 5V6.25H16.25V5C16.25 4.30859 15.6914 3.75 15 3.75Z" fill="#184869"/>
</g>
<defs>
<clipPath id="clip0_1_48">
<rect width="17.5" height="20" fill="white"/>
</clipPath>
</defs>
</svg>
