<svg width="30" height="24" viewBox="0 0 30 24" fill="none" xmlns="http://www.w3.org/2000/svg">
<path d="M15 0C15.6234 0 16.125 0.503906 16.125 1.125V2.25H17.625C18.2484 2.25 18.75 2.75391 18.75 3.375C18.75 3.99609 18.2484 4.5 17.625 4.5H16.125V6.675L21.4078 9.84375C22.0875 10.2516 22.5 10.9828 22.5 11.775V24H18V19.5C18 17.8453 16.6547 16.5 15 16.5C13.3453 16.5 12 17.8453 12 19.5V24H7.5V11.775C7.5 10.9828 7.9125 10.2516 8.59219 9.84375L13.875 6.675V4.5H12.375C11.7516 4.5 11.25 3.99609 11.25 3.375C11.25 2.75391 11.7516 2.25 12.375 2.25H13.875V1.125C13.875 0.503906 14.3766 0 15 0Z" fill="#355070"/>
<path opacity="0.4" d="M7.5 24H2.25C1.00734 24 0 22.9922 0 21.75V17.4562C0 16.6359 0.446719 15.8812 1.16578 15.4828L7.5 12V24ZM22.5 12L28.8328 15.4828C29.5547 15.8812 30 16.6359 30 17.4562V21.75C30 22.9922 28.9922 24 27.75 24H22.5V12Z" fill="#355070"/>
</svg>
