<svg width="40" height="27" viewBox="0 0 40 27" fill="none" xmlns="http://www.w3.org/2000/svg">
<path d="M20.0002 9.44507C17.8544 9.44507 16.1113 11.1881 16.1113 13.334C16.1113 15.4798 17.8544 17.2228 20.0002 17.2228C22.146 17.2228 23.8891 15.4798 23.8891 13.334C23.8891 11.1881 22.146 9.44507 20.0002 9.44507Z" fill="#355070"/>
<path opacity="0.4" d="M4.44444 13.3337C4.44444 9.75728 5.62361 6.39548 7.85625 3.67395C8.62361 2.71701 8.47042 1.31701 7.51229 0.54895C6.55743 -0.212856 5.15882 -0.0629951 4.38868 0.891866C1.55833 4.36145 0 8.79895 0 13.3337C0 17.867 1.55833 22.3059 4.38819 25.8337C4.82778 26.3823 5.47222 26.667 6.12292 26.667C6.61118 26.667 7.10139 26.5065 7.51181 26.1787C8.47014 25.4107 8.62292 24.0107 7.85576 23.0537C5.62361 20.2712 4.44444 16.9101 4.44444 13.3337ZM35.6111 0.830894C34.841 -0.126051 33.4424 -0.278134 32.4875 0.487978C31.5292 1.25603 31.3764 2.65603 32.1435 3.61298C34.375 6.39617 35.5556 9.75728 35.5556 13.3337C35.5556 16.9101 34.3764 20.2719 32.1438 22.9934C31.3764 23.9503 31.5296 25.3503 32.4877 26.1184C32.8958 26.5073 33.3889 26.667 33.875 26.667C34.526 26.667 35.1708 26.3827 35.6097 25.8358C38.4444 22.3059 40 17.8684 40 13.3337C40 8.79895 38.4444 4.36145 35.6111 0.830894ZM27.2431 5.91006C26.5513 6.5177 26.4826 7.57048 27.091 8.26214C29.5194 11.0246 29.5194 15.5191 27.091 18.283C26.4828 18.9753 26.5513 20.0274 27.2431 20.6351C27.5602 20.8503 27.9521 21.0496 28.3431 21.0496C28.8068 21.0496 29.2681 20.8586 29.5972 20.4832C33.0924 16.5075 33.0924 10.0387 29.5972 6.05958C28.9861 5.43089 27.9375 5.36145 27.2431 5.91006ZM12.7569 5.91006C12.0694 5.36145 11.0139 5.43089 10.4028 6.12534C6.90764 10.101 6.90764 16.5698 10.4028 20.549C10.7319 20.9244 11.1938 21.1153 11.6569 21.1153C12.0468 21.1153 12.4403 20.9786 12.7569 20.7008C13.4488 20.0932 13.5174 19.0404 12.909 18.3487C10.4806 15.5862 10.4806 11.0918 12.909 8.32791C13.5208 7.63228 13.4514 6.57673 12.7569 5.91006Z" fill="#8696A9"/>
</svg>
