<svg width="42" height="32" viewBox="0 0 42 32" fill="none" xmlns="http://www.w3.org/2000/svg">
<path d="M16.0008 30.9966V27.6638C16.0008 27.1139 15.5508 26.6639 15.0007 26.6639H8.0004C6.52532 26.6639 5.3336 25.4725 5.3336 23.9977V8.00038C5.3336 6.52563 6.52532 5.33416 8.0004 5.33416H15.0007C15.5508 5.33416 16.0008 4.88423 16.0008 4.33432V1.00154C16.0008 0.451634 15.5508 0.00170898 15.0007 0.00170898H8.0004C3.58351 0.00170898 0 3.58445 0 8.00038V23.9977C0 28.4137 3.58351 31.9964 8.0004 31.9964H15.0007C15.5508 31.9964 16.0008 31.5465 16.0008 30.9966Z" fill="white"/>
<path opacity="0.4" d="M41.4185 17.4155L27.4178 31.4132C26.1678 32.663 24.001 31.7882 24.001 29.9968V21.9981H12.6671C11.5587 21.9981 10.667 21.1066 10.667 19.9985V11.9998C10.667 10.8916 11.5587 10.0001 12.6671 10.0001H24.001V2.00144C24.001 0.218403 26.1594 -0.664784 27.4178 0.585008L41.4185 14.5827C42.1936 15.3659 42.1936 16.6323 41.4185 17.4155Z" fill="white"/>
</svg>
