<svg width="50" height="50" viewBox="0 0 50 50" fill="none" xmlns="http://www.w3.org/2000/svg">
<g clip-path="url(#clip0_1496_3855)">
<path opacity="0.4" d="M42.6758 7.32227C45.2148 9.86328 45.9082 13.4961 45.0098 16.709C47.9785 18.2813 50 21.4063 50 25C50 28.5937 47.9785 31.7187 45.0098 33.291C45.9961 36.5039 45.2148 40.0488 42.6758 42.6758C40.0488 45.2148 36.5039 45.9082 33.291 45.0098C31.7187 47.9785 28.5937 50 25 50C21.4063 50 18.2813 47.9785 16.709 45.0098C13.4961 45.9961 9.86328 45.2148 7.32227 42.6758C4.78125 40.0488 4.00391 36.5039 4.99023 33.291C2.02148 31.7187 0 28.5937 0 25C0 21.4063 2.02148 18.2813 4.99023 16.709C3.91602 13.4961 4.78125 9.86328 7.32227 7.32227C9.86328 4.78125 13.4961 4.00391 16.709 4.99023C18.2813 2.02148 21.4063 0 25 0C28.5937 0 31.7187 2.02148 33.291 4.99023C36.5039 3.91602 40.0488 4.78125 42.6758 7.32227Z" fill="white"/>
<path d="M32.867 30.632C33.4855 31.2504 33.4855 32.2523 32.867 32.8707C32.5603 33.18 32.1546 33.3333 31.7489 33.3333C31.3432 33.3333 30.9385 33.1787 30.6298 32.8695L25.416 27.6585L20.2028 32.8683C19.8936 33.18 19.4884 33.3333 19.0832 33.3333C18.678 33.3333 18.2733 33.18 17.9638 32.8683C17.3454 32.2498 17.3454 31.2479 17.9638 30.6295L23.1785 25.4148L17.9638 20.2026C17.3454 19.5841 17.3454 18.5823 17.9638 17.9638C18.5823 17.3454 19.5841 17.3454 20.2026 17.9638L25.416 23.181L30.6307 17.9663C31.2492 17.3479 32.2511 17.3479 32.8695 17.9663C33.4879 18.5847 33.4879 19.5866 32.8695 20.2051L27.6548 25.4198L32.867 30.632Z" fill="white"/>
</g>
<defs>
<clipPath id="clip0_1496_3855">
<rect width="50" height="50" fill="white"/>
</clipPath>
</defs>
</svg>
