<svg width="40" height="36" viewBox="0 0 40 36" fill="none" xmlns="http://www.w3.org/2000/svg">
<g clip-path="url(#clip0_1909_4845)">
<path d="M19.1103 17.4322C19.5964 17.9454 20.395 17.9454 20.8812 17.4322L28.3881 9.485C30.5756 7.18017 30.452 3.35409 27.9957 1.22463C25.8513 -0.636913 22.6659 -0.2994 20.711 1.76214L19.9367 2.56842L19.2214 1.75908C17.27 -0.302531 14.0756 -0.639975 11.8812 1.22185C9.49227 3.3527 9.35338 7.18156 11.5548 9.485L19.1103 17.4322Z" fill="#355070"/>
<path opacity="0.4" d="M39.4583 23.403C38.5472 22.1636 36.8097 21.8957 35.5743 22.8136L27.2618 28.9494H18.8868C18.2793 28.9494 17.8382 28.4449 17.8382 27.8986C17.8382 27.29 18.3417 26.8478 18.8868 26.8478H24.3208C25.3694 26.8478 26.4562 26.0913 26.6382 24.9953C26.8639 23.6661 25.7965 22.3947 24.4424 22.3947H13.2708C11.4583 22.3947 9.58194 23.0384 8.1236 24.2215L4.89444 26.8478L1.0493 26.846C0.441799 26.846 0.0006875 27.3523 0.0006875 27.9609L0 34.5166C0 35.129 0.503535 35.63 1.0486 35.63H25.0833C26.6132 35.63 28.1333 35.1299 29.368 34.2187L38.75 27.2938C40.1042 26.3815 40.368 24.6417 39.4583 23.403Z" fill="#355070"/>
</g>
<defs>
<clipPath id="clip0_1909_4845">
<rect width="40" height="35.6303" fill="white"/>
</clipPath>
</defs>
</svg>
