<svg width="385" height="354" viewBox="0 0 385 354" fill="none" xmlns="http://www.w3.org/2000/svg">
<path d="M127.28 243.77L125.48 256.89L112.35 352.7C98.58 353.49 85.04 353.73 72.09 353.11L99.3 250.83L102.13 240.18L102.23 239.81L127.28 243.76V243.77Z" fill="#B28765"/>
<path d="M104.9 194.93C104.9 194.93 104.03 198.2 104.31 204.54L104.9 194.93V194.93Z" fill="#C44E53"/>
<path d="M127.28 256.84C126.77 256.93 126.16 256.95 125.48 256.89C119.45 256.4 107.56 250.57 99.3 250.84C90.11 251.13 86.56 298.74 74.82 324.9C69.72 336.27 66.52 345.66 64.53 352.65C67.02 352.84 69.54 352.99 72.09 353.11C85.03 353.72 98.58 353.49 112.35 352.7C116.15 352.48 119.97 352.22 123.79 351.93C124.33 340.45 123.18 326.03 122.32 316.9C120.75 300.23 132.38 255.89 127.27 256.84H127.28Z" fill="url(#paint0_linear_41_2649)"/>
<path d="M150.6 206.76C149.4 207.72 148.18 208.51 147.46 208.85C145.32 209.83 132.99 224.83 131.07 227.52C129.15 230.21 127.29 243.79 127.29 243.79L125.49 256.9L99.31 250.85C99.31 250.85 101.96 231.53 101.61 223.82C101.47 220.75 100.04 205.58 100.04 201.19C100.04 196.8 95.43 176.82 99.17 176.02C102.91 175.22 105.1 196.73 107.22 195.87C109.35 195.01 108.18 165.11 113.08 164.68C118.54 164.2 113.9 191.53 116.11 191.4C118.32 191.27 120.51 159.97 126.65 161.16C131.32 162.07 122.97 191.98 125.62 192.42C128.27 192.86 134.57 168.19 139.58 169.46C143.11 170.36 138.58 182.43 136.58 192.04C135.03 199.51 134.05 205.67 133.69 208.05C133.63 208.42 134.06 208.66 134.35 208.42C145.55 199.14 151.69 199.51 153.81 201.2C153.92 201.28 154 201.38 154.07 201.48C154.91 202.72 152.79 205.02 150.62 206.76H150.6Z" fill="#B28765"/>
<path d="M109.36 138.54L134.49 132.74L109.36 126.94L103.56 101.81L97.76 126.94L72.63 132.74L97.76 138.54L103.56 163.67L109.36 138.54Z" fill="#EDC644"/>
<path d="M119.05 116.2C119.66 115.59 122.3 115.45 122.3 115.45C122.3 115.45 119.57 115.22 119.05 114.7C118.53 114.18 118.3 111.45 118.3 111.45C118.3 111.45 118.11 114.13 117.55 114.7C116.99 115.26 114.3 115.45 114.3 115.45C114.3 115.45 116.99 115.64 117.55 116.2C118.11 116.76 118.3 119.45 118.3 119.45C118.3 119.45 118.44 116.81 119.05 116.2Z" fill="#EDC644"/>
<path d="M122.76 153.2C124.69 151.27 133.01 150.83 133.01 150.83C133.01 150.83 124.39 150.1 122.76 148.46C121.12 146.82 120.39 138.2 120.39 138.2C120.39 138.2 119.8 146.67 118.02 148.46C116.24 150.24 107.76 150.83 107.76 150.83C107.76 150.83 116.24 151.42 118.02 153.2C119.79 154.97 120.39 163.46 120.39 163.46C120.39 163.46 120.83 155.13 122.76 153.2V153.2Z" fill="#EDC644"/>
<path d="M91.36 121.98C91.93 121.41 94.41 121.28 94.41 121.28C94.41 121.28 91.85 121.06 91.36 120.58C90.87 120.09 90.66 117.53 90.66 117.53C90.66 117.53 90.49 120.05 89.96 120.58C89.43 121.11 86.91 121.28 86.91 121.28C86.91 121.28 89.43 121.46 89.96 121.98C90.49 122.51 90.66 125.03 90.66 125.03C90.66 125.03 90.79 122.56 91.36 121.98Z" fill="#EDC644"/>
<path d="M86.54 146.43C87.86 145.11 93.56 144.81 93.56 144.81C93.56 144.81 87.66 144.31 86.54 143.19C85.42 142.07 84.92 136.17 84.92 136.17C84.92 136.17 84.52 141.97 83.3 143.19C82.08 144.41 76.28 144.81 76.28 144.81C76.28 144.81 82.08 145.22 83.3 146.43C84.51 147.64 84.92 153.45 84.92 153.45C84.92 153.45 85.22 147.75 86.54 146.43Z" fill="#EDC644"/>
<path d="M95.23 158.03C95.91 157.35 98.83 157.2 98.83 157.2C98.83 157.2 95.8 156.94 95.23 156.37C94.65 155.79 94.4 152.76 94.4 152.76C94.4 152.76 94.19 155.74 93.57 156.37C92.94 157 89.97 157.2 89.97 157.2C89.97 157.2 92.95 157.41 93.57 158.03C94.19 158.65 94.4 161.63 94.4 161.63C94.4 161.63 94.55 158.7 95.23 158.03Z" fill="#EDC644"/>
<path d="M70.16 221.28C70.16 221.65 70.16 222.03 70.14 222.42C70.14 222.62 70.13 222.83 70.12 223.03C70.12 223.12 70.12 223.21 70.11 223.3C70.11 223.41 70.1 223.53 70.09 223.64C70.08 223.88 70.06 224.13 70.04 224.37C69.97 225.44 69.86 226.59 69.72 227.83C68.94 234.5 60.39 243.18 55.87 246.5C55.11 246.17 53.55 255.46 51.67 268.62C47.88 295.06 42.78 337.13 40.21 348.09C26.28 343.81 14.14 337.46 4.59 328.37C9.7 310.52 17.38 283.72 23.12 263.61C27.58 247.97 30.87 236.38 30.85 236.23C30.53 234.13 33 208.34 35.41 202.35C35.97 200.96 37.48 199.37 39.33 197.8C41.83 195.69 51.47 188.11 56.34 184.27C56.49 184.15 56.63 184.04 56.77 183.93C57.14 183.64 57.47 183.38 57.76 183.15C58.64 182.45 59.17 182.03 59.19 182C59.3 181.87 59.04 195.34 59.08 201.92C59.09 203.91 59.13 205.27 59.22 205.44C59.89 206.76 60.5 207.98 61.01 209.01C61.6 210.19 62.06 211.12 62.33 211.67C62.35 211.71 62.37 211.76 62.39 211.79C62.53 212.07 62.6 212.23 62.6 212.23C62.6 212.23 64.07 211.22 65.71 211.31C66.22 211.33 66.75 211.47 67.26 211.77C67.39 211.85 67.53 211.94 67.66 212.05C68.16 212.46 68.63 213.06 69.02 213.93C69.41 214.78 69.72 215.89 69.91 217.32C69.93 217.5 69.96 217.68 69.98 217.87C70.09 218.86 70.15 219.98 70.14 221.27L70.16 221.28Z" fill="#EFC7C8"/>
<path d="M48.67 237.24L48.58 237C48.58 237 50.25 236.34 51.53 234.05C52.71 231.92 53.8 227.9 52.28 220.85L52.53 220.79C53.38 224.73 53.94 230.26 51.75 234.19C50.43 236.56 48.75 237.21 48.68 237.24H48.67Z" fill="#E97966"/>
<path d="M51.67 268.63C49.34 267.97 46.2 267.99 42.45 268.85C33.69 270.88 30.63 264.98 23.13 263.62C22.5 263.5 21.83 263.42 21.12 263.38C12.1 262.83 12.44 299.55 3.69 315.96C2.26 318.64 1.04 321.19 0 323.56C1.45 325.25 2.98 326.85 4.59 328.37C14.14 337.46 26.28 343.81 40.21 348.09C40.63 348.22 41.05 348.35 41.47 348.47C44.77 341.91 46.14 332.47 46.81 322.16C47.63 309.58 54.74 281.42 56.1 275.67C56.93 272.2 55.23 269.62 51.65 268.61L51.67 268.63Z" fill="#D67086"/>
<path d="M88.72 226.35L58.02 221.33C54.06 220.68 51.38 216.95 52.03 212.99L61.48 155.14L61.91 152.53C62.36 149.78 64.95 147.92 67.7 148.36L101.96 153.96C104.11 154.31 105.58 156.35 105.22 158.5L104.61 162.26L94.86 221.92C94.38 224.83 91.64 226.81 88.72 226.33V226.35Z" fill="#EDF1FA"/>
<path d="M90.93 226.44L55.46 220.64C53.08 220.25 51.46 218 51.85 215.62L51.96 214.93L95.1 221.98L94.83 223.63C94.53 225.48 92.78 226.74 90.93 226.43V226.44Z" fill="#23234F"/>
<path d="M102.1 153.1L67.25 147.4C64.63 146.97 62.16 148.75 61.73 151.37L58.88 168.8L57.17 179.24L57.09 179.75L56.35 184.28L55.72 188.16L53.17 203.75L51.27 215.38L51.22 215.68C50.79 218.3 52.57 220.77 55.19 221.2L61.51 222.23L70.09 223.64L82.51 225.67L82.6 225.69L90.04 226.91C92.66 227.34 95.13 225.56 95.56 222.94L98.73 203.53L101.36 187.45L106.07 158.63C106.5 156.01 104.72 153.54 102.1 153.11V153.1ZM104.86 158.43L104.29 161.95L100.34 186.14L97.64 202.64L94.49 221.9L94.35 222.76C94.03 224.72 92.18 226.04 90.23 225.72L83.13 224.56L70.13 222.43L61.25 220.98L55.37 220.02C55.1 219.97 54.84 219.9 54.59 219.8C53.31 219.28 52.44 218.05 52.37 216.68C52.35 216.42 52.37 216.16 52.41 215.9L52.55 215.04L52.68 214.22L54.48 203.24L56.77 189.21L57.76 183.17L58.22 180.38V180.34L59.95 169.71L62.35 155.01L62.91 151.57C63.23 149.62 65.07 148.29 67.03 148.61L101.88 154.31C103.83 154.63 105.16 156.48 104.84 158.43H104.86Z" fill="#23234F"/>
<path d="M38.1 209.53C38.1 209.53 49.9 205.14 57.11 202.17C57.62 201.96 59.98 201.89 61.41 201.9C66.85 201.9 71.12 202.23 71.14 202.69C71.3 208.23 62.04 208.45 60.51 209.21C54.74 212.06 45.96 218.73 47.2 221.9C47.66 223.06 48.42 224.23 48.77 225.19C51.89 233.69 50.27 234.49 41.03 237.32C33.14 239.74 31.84 230.09 31.84 230.09L34.9 222L38.11 209.54L38.1 209.53Z" fill="#EFC7C8"/>
<path d="M66.62 204.91L70.83 203.99C71.29 203.89 71.68 203.4 71.48 202.97C71.17 202.29 70.98 201.74 70.06 201.76L65.51 201.95C65.05 202.05 65.18 202.38 65.28 202.84L65.59 204.26C65.69 204.72 66.15 205.02 66.61 204.92L66.62 204.91Z" fill="#D67086"/>
<path d="M209.19 208.16L209.11 208.32C208.19 210.02 209.06 212.28 211.05 213.36L215.51 215.78C217.56 216.89 219.98 216.38 220.93 214.63C221.88 212.89 220.99 210.57 218.94 209.46L214.48 207.04C212.49 205.96 210.12 206.46 209.2 208.16H209.19Z" fill="#5F463F"/>
<path fill-rule="evenodd" clip-rule="evenodd" d="M72.71 175.95L75.16 176.36L74.5 180.35C73.16 181.42 71.66 181.81 69.66 181.48C67.99 181.2 66.53 180.17 65.69 178.88C64.85 177.59 64.66 176.04 64.89 174.68C65.12 173.32 65.87 171.86 67.21 170.92C68.55 169.99 69.97 169.62 71.61 169.89C73.25 170.16 74.58 170.94 75.85 172.36L73.93 173.96C73.8 173.7 73.08 172.49 71.34 172.2C70.52 172.06 69.62 172.21 68.85 172.76C68.08 173.3 67.54 174.02 67.36 175.09C67.18 176.16 67.45 177.11 67.96 177.8C68.48 178.49 69.28 179.06 69.98 179.18C70.92 179.34 71.62 179.28 72.21 179.06L72.73 175.96L72.71 175.95Z" fill="#140D48"/>
<path d="M76.622 173.583L75.1543 182.391L77.6005 182.799L79.0683 173.99L76.622 173.583Z" fill="#150D49"/>
<path d="M87.07 175.33L83.96 180.51L82.83 174.62L80.15 174.18L82.16 183.57L84.67 183.99L89.62 175.75L87.07 175.33Z" fill="#150D49"/>
<path fill-rule="evenodd" clip-rule="evenodd" d="M92.65 178.1L92.02 181.85C92.02 181.85 91.96 183 93.05 183.2C93.59 183.3 94.01 182.99 94.18 182.83C94.26 183.04 95.3 184.21 95.3 184.21C94.52 184.92 93.29 185.37 92.14 185.22C91.25 185.1 90.57 184.66 90.06 183.99C89.55 183.32 89.38 182.49 89.56 181.44L90.95 173.12L93.4 173.53L92.94 176.3L95.06 176.65L94.76 178.44L92.64 178.09L92.65 178.1Z" fill="#150D49"/>
<path d="M77.0847 170.799L76.7856 172.595L89.6778 174.743L89.977 172.948L77.0847 170.799Z" fill="#43BA86"/>
<path d="M325.23 130.14L348.18 124.84L325.23 119.55L319.93 96.5901L314.63 119.55L291.68 124.84L314.63 130.14L319.93 153.09L325.23 130.14Z" fill="#E8C250"/>
<path d="M334.07 109.74C334.63 109.18 337.04 109.06 337.04 109.06C337.04 109.06 334.55 108.85 334.07 108.38C333.6 107.91 333.39 105.41 333.39 105.41C333.39 105.41 333.22 107.86 332.7 108.38C332.19 108.9 329.73 109.06 329.73 109.06C329.73 109.06 332.18 109.23 332.7 109.74C333.21 110.25 333.39 112.71 333.39 112.71C333.39 112.71 333.52 110.3 334.07 109.74Z" fill="#E8C250"/>
<path d="M337.47 143.53C339.23 141.77 346.84 141.37 346.84 141.37C346.84 141.37 338.97 140.71 337.47 139.21C335.97 137.71 335.31 129.84 335.31 129.84C335.31 129.84 334.77 137.58 333.15 139.21C331.52 140.84 323.78 141.37 323.78 141.37C323.78 141.37 331.53 141.91 333.15 143.53C334.77 145.15 335.31 152.9 335.31 152.9C335.31 152.9 335.71 145.3 337.47 143.53Z" fill="#E8C250"/>
<path d="M305.9 107.48C306.24 107.14 307.68 107.07 307.68 107.07C307.68 107.07 306.18 106.94 305.9 106.66C305.62 106.37 305.49 104.88 305.49 104.88C305.49 104.88 305.39 106.35 305.08 106.66C304.77 106.97 303.3 107.07 303.3 107.07C303.3 107.07 304.78 107.17 305.08 107.48C305.39 107.79 305.49 109.26 305.49 109.26C305.49 109.26 305.57 107.81 305.9 107.48Z" fill="#E8C250"/>
<path d="M308.79 115.02C309.31 114.5 311.57 114.38 311.57 114.38C311.57 114.38 309.23 114.18 308.79 113.74C308.35 113.29 308.15 110.96 308.15 110.96C308.15 110.96 307.99 113.26 307.51 113.74C307.03 114.22 304.73 114.38 304.73 114.38C304.73 114.38 307.03 114.54 307.51 115.02C307.99 115.5 308.15 117.8 308.15 117.8C308.15 117.8 308.27 115.54 308.79 115.02Z" fill="#E8C250"/>
<path d="M304.38 137.35C305.59 136.14 310.79 135.87 310.79 135.87C310.79 135.87 305.4 135.42 304.38 134.39C303.36 133.37 302.9 127.98 302.9 127.98C302.9 127.98 302.53 133.28 301.42 134.39C300.31 135.5 295.01 135.87 295.01 135.87C295.01 135.87 300.31 136.24 301.42 137.35C302.53 138.46 302.9 143.76 302.9 143.76C302.9 143.76 303.17 138.56 304.38 137.35Z" fill="#E8C250"/>
<path d="M312.32 147.94C312.94 147.32 315.61 147.18 315.61 147.18C315.61 147.18 312.84 146.95 312.32 146.42C311.79 145.89 311.56 143.13 311.56 143.13C311.56 143.13 311.37 145.85 310.8 146.42C310.23 146.99 307.51 147.18 307.51 147.18C307.51 147.18 310.23 147.37 310.8 147.94C311.37 148.51 311.56 151.23 311.56 151.23C311.56 151.23 311.7 148.56 312.32 147.94Z" fill="#E8C250"/>
<path d="M324.1 230.39C323.35 228.4 320.41 202.66 321.52 196.3C321.78 194.82 322.92 192.95 324.41 191.04C326.41 188.46 334.27 179.04 338.24 174.27C338.36 174.12 338.48 173.98 338.59 173.85C338.89 173.49 339.16 173.17 339.4 172.88C340.12 172.02 340.55 171.49 340.56 171.46C340.64 171.31 343.18 184.54 344.59 190.97C345.02 192.91 345.34 194.23 345.46 194.38C346.39 195.53 347.24 196.6 347.95 197.5C348.77 198.53 349.41 199.34 349.79 199.83C349.82 199.87 349.85 199.91 349.88 199.94C350.08 200.19 350.18 200.32 350.18 200.32C350.18 200.32 351.41 199.03 353.03 198.77C353.54 198.69 354.08 198.71 354.64 198.9C354.79 198.95 354.94 199.01 355.09 199.09C355.66 199.38 356.25 199.88 356.81 200.64C357.37 201.4 357.9 202.42 358.39 203.77C358.45 203.94 358.51 204.11 358.57 204.29C358.88 205.23 359.17 206.32 359.43 207.58C359.51 207.94 359.58 208.31 359.65 208.7C359.69 208.9 359.72 209.1 359.76 209.31C359.78 209.4 359.79 209.49 359.81 209.58C359.83 209.69 359.85 209.8 359.86 209.92C359.9 210.16 359.93 210.4 359.97 210.65C360.12 211.71 360.26 212.85 360.37 214.1C360.99 220.79 354.43 231.05 350.7 235.24L324.09 230.4L324.1 230.39Z" fill="#EBBEBF"/>
<path d="M341.74 227.66L341.6 227.44C341.6 227.44 343.1 226.45 343.87 223.94C344.59 221.61 344.82 217.45 341.86 210.87L342.1 210.76C343.76 214.44 345.45 219.73 344.12 224.03C343.32 226.62 341.81 227.61 341.75 227.65L341.74 227.66Z" fill="#EA7B69"/>
<path d="M378.65 208.69L347.58 210.16C343.57 210.35 340.17 207.25 339.98 203.25L337.21 144.7L337.09 142.06C336.96 139.28 339.11 136.91 341.89 136.78L376.56 135.14C378.74 135.04 380.59 136.72 380.7 138.9L380.88 142.71L383.74 203.1C383.88 206.05 381.6 208.55 378.65 208.69V208.69Z" fill="#E5EBF6"/>
<path d="M380.83 208.32L344.93 210.01C342.52 210.12 340.47 208.26 340.36 205.85L340.33 205.16L383.99 203.1L384.07 204.77C384.16 206.64 382.71 208.23 380.84 208.32H380.83Z" fill="#1E2152"/>
<path d="M376.52 134.26L341.25 135.93C338.6 136.05 336.55 138.31 336.68 140.96L337.51 158.6L338.01 169.17L338.03 169.68L338.25 174.26L338.44 178.18L339.19 193.96L339.75 205.74V206.04C339.89 208.69 342.14 210.74 344.79 210.62L351.19 210.32L359.87 209.91L372.44 209.31H372.54L380.07 208.95C382.72 208.82 384.77 206.57 384.64 203.92L383.71 184.28L382.94 168L381.56 138.83C381.44 136.18 379.18 134.13 376.53 134.25L376.52 134.26ZM380.33 138.9L380.5 142.46L381.66 166.94L382.45 183.64L383.37 203.13L383.41 204C383.5 205.98 381.97 207.66 379.99 207.76L372.8 208.1L359.65 208.72L350.67 209.15L344.72 209.43C344.44 209.44 344.17 209.43 343.91 209.38C342.55 209.13 341.45 208.12 341.09 206.79C341.02 206.54 340.98 206.28 340.97 206.02L340.93 205.15L340.89 204.32L340.37 193.2L339.7 179L339.41 172.89L339.28 170.07V170.03L338.77 159.27L338.07 144.4L337.9 140.92C337.81 138.94 339.33 137.26 341.32 137.17L376.59 135.5C378.57 135.41 380.25 136.94 380.34 138.92L380.33 138.9Z" fill="#1E2152"/>
<path d="M325.64 202.75C325.64 202.75 336.27 196 342.71 191.6C343.17 191.29 345.46 190.73 346.86 190.44C352.19 189.31 356.43 188.75 356.54 189.2C357.84 194.59 348.84 196.73 347.49 197.79C342.44 201.78 335.23 210.13 337.11 212.97C337.8 214.01 338.79 215 339.33 215.86C344.15 223.52 342.73 224.64 334.28 229.33C327.06 233.33 323.79 224.17 323.79 224.17L325.1 215.62L325.65 202.77L325.64 202.75Z" fill="#EBBEBF"/>
<path d="M352.58 192.31L356.51 190.53C356.94 190.34 357.22 189.77 356.94 189.39C356.5 188.79 356.2 188.29 355.3 188.5L350.89 189.63C350.46 189.82 350.65 190.12 350.85 190.55L351.45 191.87C351.64 192.3 352.16 192.49 352.59 192.3L352.58 192.31Z" fill="#F2B7B0"/>
<path d="M342.96 337.64C331.19 343.1 312.01 348.33 300.34 346.69L308.67 306.96L309.96 300.47L310.84 296.04L312.18 289.29L324.11 230.4L350.72 235.24L350.3 235.76L350.72 235.24L346.55 287.86L346.23 292.28L345.73 299.26L342.97 337.65L342.96 337.64Z" fill="#EBBEBF"/>
<path d="M306.49 307.72C303.35 307.45 301.75 306.7 301.51 305.4C301.38 304.73 301 302.7 309.67 299.65C310.12 299.49 310.62 299.73 310.77 300.18C310.93 300.63 310.69 301.13 310.24 301.29C304.55 303.29 303.22 304.75 303.2 305.1C303.32 305.36 304.84 306.16 309.98 306.1C314.37 306.05 320.04 305.41 325.95 304.3C331.86 303.19 337.38 301.73 341.49 300.18C346.3 298.37 347.43 297.08 347.44 296.77C347.44 296.77 347.21 296.41 345.81 296.12C345.34 296.02 345.04 295.56 345.14 295.1C345.24 294.63 345.7 294.33 346.16 294.43C346.83 294.57 348.86 294.99 349.14 296.46C349.45 298.14 347.32 299.79 342.43 301.68C338.19 303.31 332.45 304.85 326.27 306.01C320.08 307.17 314.18 307.82 309.64 307.84C308.45 307.84 307.4 307.81 306.48 307.73L306.49 307.72Z" fill="#293271"/>
<path d="M310.84 296.9C310.56 296.88 310.29 296.85 310.02 296.82C304.81 296.29 302.31 295.26 302.17 293.56C302.08 292.45 303.03 291.46 305.08 290.54C306.71 289.8 309.1 289.08 311.98 288.44C312.45 288.34 312.91 288.63 313.01 289.1C313.11 289.57 312.82 290.03 312.35 290.13C305.63 291.61 303.95 293.05 303.89 293.43C303.98 293.71 305.41 294.66 310.53 295.13C314.9 295.54 320.61 295.49 326.6 295.01C332.59 294.52 338.23 293.64 342.48 292.53C347.45 291.23 348.71 290.06 348.75 289.75C348.75 289.75 348.49 289.22 346.32 288.69C345.86 288.58 345.57 288.11 345.68 287.64C345.79 287.18 346.26 286.89 346.73 287C348.28 287.38 350.36 288.05 350.48 289.61C350.62 291.31 348.33 292.74 343.26 294.1C338.88 295.28 333.01 296.21 326.73 296.72C320.83 297.2 315.22 297.26 310.81 296.88L310.84 296.9Z" fill="#293271"/>
<path fill-rule="evenodd" clip-rule="evenodd" d="M352.64 162.9L355.12 162.78L355.31 166.82C354.23 168.15 352.84 168.85 350.81 168.94C349.12 169.02 347.47 168.32 346.38 167.24C345.29 166.15 344.78 164.68 344.71 163.3C344.64 161.92 345.07 160.34 346.19 159.14C347.31 157.94 348.61 157.29 350.27 157.21C351.93 157.13 353.39 157.61 354.93 158.73L353.39 160.69C353.2 160.47 352.25 159.43 350.49 159.51C349.66 159.55 348.81 159.89 348.17 160.58C347.53 161.28 347.15 162.09 347.2 163.17C347.25 164.25 347.71 165.13 348.36 165.69C349.01 166.26 349.92 166.64 350.63 166.61C351.58 166.57 352.26 166.36 352.78 166.02L352.63 162.88L352.64 162.9Z" fill="#140D48"/>
<path d="M358.449 159.651L355.972 159.768L356.391 168.688L358.868 168.572L358.449 159.651Z" fill="#150D49"/>
<path d="M366.55 159.27L364.6 164.99L362.25 159.47L359.54 159.6L363.48 168.36L366.03 168.24L369.13 159.15L366.55 159.27Z" fill="#150D49"/>
<path fill-rule="evenodd" clip-rule="evenodd" d="M372.58 160.81L372.76 164.61C372.76 164.61 372.94 165.75 374.05 165.71C374.6 165.69 374.94 165.31 375.07 165.11C375.19 165.3 376.46 166.23 376.46 166.23C375.85 167.09 374.74 167.79 373.58 167.89C372.68 167.96 371.93 167.68 371.29 167.13C370.65 166.58 370.31 165.8 370.27 164.74L369.87 156.31L372.35 156.19L372.48 159L374.63 158.9L374.72 160.72L372.57 160.82L372.58 160.81Z" fill="#150D49"/>
<path d="M368.895 156.352L355.839 156.965L355.925 158.783L368.98 158.17L368.895 156.352Z" fill="#43BA86"/>
<path d="M126.67 57.4101C124.28 50.9601 125.83 52.5101 119.38 50.1201C125.83 47.7301 124.28 49.2801 126.67 42.8301C129.06 49.2801 127.52 47.7301 133.96 50.1201C127.51 52.5101 129.06 50.9601 126.67 57.4101Z" fill="#F5C74E"/>
<path d="M119.38 42.8299C114.85 30.5999 117.78 33.5299 105.55 28.9999C117.78 24.4699 114.85 27.3999 119.38 15.1699C123.91 27.3999 120.98 24.4699 133.21 28.9999C120.98 33.5299 123.91 30.5999 119.38 42.8299V42.8299Z" fill="#F5C74E"/>
<path d="M259.95 38.82C253.6 21.66 257.7 25.77 240.54 19.41C257.7 13.06 253.59 17.16 259.95 0C266.31 17.16 262.2 13.05 279.36 19.41C262.2 25.76 266.31 21.66 259.95 38.82Z" fill="#F5C74E"/>
<path d="M270.16 57.41C266.7 48.06 268.93 50.3 259.58 46.83C268.93 43.37 266.69 45.6 270.16 36.25C273.62 45.6 271.39 43.36 280.74 46.83C271.39 50.29 273.63 48.06 270.16 57.41Z" fill="#F5C74E"/>
<path d="M163.14 91.8499C166.11 85.3799 166.11 87.6399 163.14 81.1599C169.61 84.1299 167.35 84.1299 173.83 81.1599C170.86 87.6299 170.86 85.3699 173.83 91.8499C167.36 88.8799 169.62 88.8799 163.14 91.8499Z" fill="#F5C74E"/>
<path d="M170.51 78.0699C172.36 74.0499 172.36 75.4499 170.51 71.4299C174.53 73.2799 173.13 73.2799 177.15 71.4299C175.3 75.4499 175.3 74.0499 177.15 78.0699C173.13 76.2199 174.53 76.2199 170.51 78.0699Z" fill="#F5C74E"/>
<path d="M240.82 54.91C242.67 50.89 242.67 52.29 240.82 48.27C244.84 50.12 243.44 50.12 247.46 48.27C245.61 52.29 245.61 50.89 247.46 54.91C243.44 53.06 244.84 53.06 240.82 54.91Z" fill="#F5C74E"/>
<path d="M179.42 75.5601C181.72 70.5601 181.72 72.3101 179.42 67.3101C184.42 69.6101 182.67 69.6101 187.67 67.3101C185.37 72.3101 185.37 70.5601 187.67 75.5601C182.67 73.2601 184.42 73.2601 179.42 75.5601Z" fill="#F5C74E"/>
<path d="M221.02 343.54C211.15 343.9 201.42 344.66 191.84 345.94C189.71 346.22 187.56 346.51 185.4 346.8L177.63 302.3L171.86 269.23L196.81 264.35L196.92 264.72L206.45 295.91L221.01 343.55L221.02 343.54Z" fill="#ECB89E"/>
<path d="M229.63 341.53C214.37 321.61 211.87 291.78 207.71 295.11C207.38 295.37 206.96 295.64 206.47 295.9C200.69 298.95 184.38 301.81 177.64 302.3C170.32 302.82 175.8 318.15 168.58 337.58C167.11 341.55 166.56 345.51 166.62 349.3C172.97 348.47 179.25 347.63 185.4 346.8C187.56 346.51 189.71 346.22 191.84 345.94C201.42 344.66 211.15 343.9 221.02 343.54C224.33 343.42 227.65 343.34 230.99 343.31C230.53 342.71 230.08 342.12 229.63 341.53V341.53Z" fill="#81A2D5"/>
<path d="M140.15 233.43C141.49 234.5 142.84 235.38 143.65 235.75C146.04 236.85 159.77 253.55 161.91 256.54C164.05 259.54 171.86 269.22 171.86 269.22L196.81 264.34C196.81 264.34 195.3 255.79 194.72 252.42C194.14 249.05 196.47 232.11 196.47 227.22C196.47 222.33 201.61 200.07 197.44 199.18C193.27 198.29 190.84 222.25 188.47 221.29C186.1 220.33 187.4 187.03 181.95 186.55C175.86 186.01 181.04 216.46 178.58 216.31C176.12 216.17 173.68 181.29 166.84 182.63C161.63 183.64 170.94 216.96 167.99 217.45C165.04 217.94 158.02 190.45 152.44 191.87C148.51 192.87 153.56 206.31 155.78 217.03C157.51 225.35 158.6 232.21 159 234.87C159.06 235.28 158.58 235.55 158.26 235.28C145.78 224.95 138.95 225.36 136.58 227.24C136.46 227.33 136.37 227.44 136.29 227.55C135.36 228.93 137.72 231.49 140.13 233.43H140.15Z" fill="#ECB89E"/>
<path d="M251.2 147.72L259.21 150.88L251.2 154.04C246.94 155.72 243.56 159.09 241.88 163.36L238.72 171.37L235.56 163.36C233.88 159.1 230.5 155.72 226.24 154.04L218.23 150.88L226.24 147.72C230.5 146.04 233.88 142.67 235.56 138.4L238.72 130.39L241.88 138.4C243.56 142.66 246.93 146.04 251.2 147.72Z" fill="#E8C250"/>
<path d="M225.79 138.54L224.82 137.38L225.98 138.35C227.08 139.14 228.56 139.14 229.67 138.35L230.83 137.38L229.86 138.54C229.07 139.64 229.07 141.12 229.86 142.23L230.83 143.39L229.67 142.42C228.57 141.63 227.09 141.63 225.98 142.42L224.82 143.39L225.79 142.23C226.58 141.13 226.58 139.65 225.79 138.54Z" fill="#E8C250"/>
<path d="M229.46 132.16L228.81 131.39L229.58 132.04C230.31 132.57 231.3 132.57 232.04 132.04L232.81 131.39L232.16 132.16C231.63 132.89 231.63 133.88 232.16 134.62L232.81 135.39L232.04 134.74C231.31 134.21 230.32 134.21 229.58 134.74L228.81 135.39L229.46 134.62C229.99 133.89 229.99 132.9 229.46 132.16Z" fill="#E8C250"/>
<path d="M247.46 140.16L246.81 139.39L247.58 140.04C248.31 140.57 249.3 140.57 250.04 140.04L250.81 139.39L250.16 140.16C249.63 140.89 249.63 141.88 250.16 142.62L250.81 143.39L250.04 142.74C249.31 142.21 248.32 142.21 247.58 142.74L246.81 143.39L247.46 142.62C247.99 141.89 247.99 140.9 247.46 140.16Z" fill="#E8C250"/>
<path d="M222.02 160.4L220.32 158.38L222.34 160.08C224.27 161.46 226.86 161.46 228.79 160.08L230.81 158.38L229.11 160.4C227.73 162.33 227.73 164.92 229.11 166.85L230.81 168.87L228.79 167.17C226.86 165.79 224.27 165.79 222.34 167.17L220.32 168.87L222.02 166.85C223.4 164.92 223.4 162.33 222.02 160.4Z" fill="#E8C250"/>
<path d="M247.52 158.82L246.31 157.37L247.76 158.58C249.14 159.57 250.99 159.57 252.37 158.58L253.81 157.37L252.6 158.82C251.61 160.2 251.61 162.05 252.6 163.43L253.81 164.87L252.37 163.66C250.99 162.67 249.14 162.67 247.76 163.66L246.31 164.87L247.52 163.43C248.51 162.05 248.51 160.2 247.52 158.82Z" fill="#E8C250"/>
<path d="M235.7 275.33C238.65 274.08 242.03 272.99 245.67 272.18C252.85 270.57 259.56 270.36 264.33 271.33C262.39 263.66 259.44 251.53 259.76 249.97C260.23 247.67 258.96 219.11 256.65 212.36C254.86 207.15 241.66 198.99 240.81 197.86C239.96 196.74 226.11 221.72 226.11 221.72C226.11 221.72 219.4 236.01 217.4 238.5C213.24 243.69 227.87 257.1 232.39 260.47L235.71 275.32L235.7 275.33Z" fill="#553F3B"/>
<path d="M216.21 209.12L216.31 208.94C217.45 206.97 216.77 204.46 214.81 203.32L202.43 196.17C200.41 195.01 197.84 195.7 196.67 197.71C195.51 199.73 196.2 202.3 198.21 203.47L210.59 210.62C212.56 211.76 215.07 211.08 216.2 209.12H216.21Z" fill="#553F3B"/>
<path d="M244.97 237.12L214.85 240.58C210.97 241.03 207.46 238.24 207.01 234.35L200.5 177.59L200.21 175.03C199.9 172.33 201.84 169.89 204.53 169.58L238.14 165.72C240.25 165.48 242.16 167 242.41 169.11L242.83 172.8L249.55 231.34C249.88 234.2 247.83 236.78 244.97 237.11V237.12Z" fill="#E5EBF6"/>
<path d="M207.457 236.183L249.778 231.324L250.011 233.351C250.194 234.94 249.05 236.38 247.461 236.562L210.891 240.761C209.302 240.944 207.862 239.801 207.679 238.211L207.447 236.184L207.457 236.183Z" fill="#00001F"/>
<path d="M250.47 232.1L248.86 218.08L248.28 213.06L247.08 202.6L246.47 197.28L243.22 169C242.92 166.43 240.6 164.58 238.03 164.88L203.84 168.8C201.27 169.1 199.42 171.42 199.72 173.99L201.68 191.09L202.25 196.07L202.86 201.34L202.92 201.84L203.45 206.49L203.47 206.63L203.87 210.08L204.46 215.2L206.97 237.09C207.27 239.66 209.59 241.51 212.16 241.21L216.66 240.69L218.36 240.49L238.96 238.13H239.05L240.12 238L246.34 237.28C248.91 236.98 250.76 234.66 250.46 232.09L250.47 232.1ZM240.64 236.75L239.25 236.91L217.79 239.37L216.85 239.48L212.02 240.04C211.75 240.07 211.49 240.07 211.23 240.04C209.9 239.89 208.75 238.97 208.31 237.7C208.23 237.47 208.18 237.22 208.15 236.97L208.05 236.13L205.73 215.9L205.14 210.79L204.73 207.24V207.19L204.14 202.13V202.09L203.53 196.82L202.94 191.67L201.28 177.25L200.89 173.87C200.67 171.95 202.05 170.22 203.97 170L238.16 166.07C240.08 165.85 241.81 167.23 242.03 169.15L242.43 172.6L245.15 196.33L245.76 201.63L247.01 212.51L247.59 217.53L249.18 231.4L249.28 232.24C249.5 234.16 248.12 235.9 246.2 236.11L240.63 236.75H240.64Z" fill="#00001F"/>
<path d="M253.31 220.02C253.31 220.02 240.55 214.51 232.77 210.83C232.22 210.57 229.62 210.36 228.05 210.28C222.05 209.98 217.32 210.1 217.28 210.61C216.79 216.71 226.99 217.48 228.64 218.4C234.83 221.87 244.15 229.72 242.59 233.14C242.02 234.4 241.11 235.64 240.67 236.68C236.75 245.87 238.49 246.84 248.52 250.48C257.08 253.59 259.06 243.03 259.06 243.03L256.14 233.93L253.31 220.01V220.02Z" fill="#553F3B"/>
<path d="M222.14 213.32L217.55 212.06C217.05 211.92 216.65 211.36 216.89 210.89C217.27 210.16 217.51 209.56 218.52 209.64L223.52 210.11C224.02 210.25 223.86 210.6 223.73 211.1L223.31 212.65C223.17 213.15 222.65 213.45 222.15 213.31L222.14 213.32Z" fill="#8D282D"/>
<path d="M239.17 252.16C239.12 252.12 237.9 251.07 237.4 248.79C236.94 246.7 237.01 243.12 240.02 237.97L240.27 238.12C238.64 240.91 236.87 245.02 237.68 248.71C238.16 250.91 239.35 251.94 239.36 251.95L239.17 252.17V252.16Z" fill="#372A29"/>
<path d="M292.68 345.43C277.59 344.16 262.71 343.03 248.08 342.42L232.83 273.66L235.14 272.85L262.34 263.29L263.33 262.94C263.33 262.94 280.58 311.46 292.67 345.43H292.68Z" fill="#D27185"/>
<path fill-rule="evenodd" clip-rule="evenodd" d="M216.59 194.85L219.06 194.57L219.52 198.59C218.53 199.99 217.19 200.78 215.18 201.01C213.5 201.2 211.81 200.62 210.64 199.61C209.47 198.6 208.87 197.16 208.71 195.79C208.55 194.42 208.87 192.81 209.91 191.54C210.94 190.27 212.2 189.53 213.85 189.34C215.5 189.15 216.99 189.53 218.6 190.54L217.2 192.6C217 192.39 215.98 191.42 214.23 191.62C213.4 191.72 212.58 192.11 211.99 192.84C211.4 193.58 211.07 194.41 211.2 195.49C211.33 196.57 211.84 197.41 212.53 197.93C213.22 198.45 214.15 198.78 214.85 198.69C215.79 198.58 216.46 198.33 216.96 197.96L216.6 194.84L216.59 194.85Z" fill="#140D48"/>
<path d="M222.18 191.199L219.716 191.482L220.735 200.353L223.199 200.07L222.18 191.199Z" fill="#150D49"/>
<path d="M230.22 190.29L228.66 196.13L225.95 190.78L223.25 191.09L227.77 199.56L230.3 199.27L232.79 189.99L230.22 190.29Z" fill="#150D49"/>
<path fill-rule="evenodd" clip-rule="evenodd" d="M236.35 191.42L236.78 195.2C236.78 195.2 237.04 196.32 238.14 196.21C238.69 196.15 239 195.75 239.12 195.54C239.25 195.72 240.58 196.56 240.58 196.56C240.02 197.46 238.97 198.23 237.82 198.41C236.93 198.54 236.16 198.31 235.49 197.8C234.82 197.29 234.42 196.54 234.31 195.48L233.35 187.1L235.82 186.82L236.14 189.61L238.28 189.36L238.49 191.17L236.35 191.42Z" fill="#150D49"/>
<path d="M232.381 187.19L219.396 188.68L219.604 190.489L232.588 188.998L232.381 187.19Z" fill="#43BA86"/>
<defs>
<linearGradient id="paint0_linear_41_2649" x1="64.54" y1="302.15" x2="128.59" y2="302.15" gradientUnits="userSpaceOnUse">
<stop stop-color="#4857A3"/>
<stop offset="0.25" stop-color="#41519F"/>
<stop offset="1" stop-color="#40509E"/>
</linearGradient>
</defs>
</svg>
