<?xml version="1.0" encoding="UTF-8"?><svg id="Layer_2" xmlns="http://www.w3.org/2000/svg" xmlns:xlink="http://www.w3.org/1999/xlink" viewBox="0 0 321.25 322.21"><defs><linearGradient id="linear-gradient" x1="27.04" y1="-37.69" x2="48" y2="154.09" gradientUnits="userSpaceOnUse"><stop offset="0" stop-color="#dae1f3"/><stop offset="1" stop-color="#e9effa"/></linearGradient><linearGradient id="linear-gradient-2" x1="241.85" y1="-139.54" x2="16.48" y2="220.33" gradientTransform="translate(80.69 83.4) rotate(2.03)" gradientUnits="userSpaceOnUse"><stop offset="0" stop-color="#232451"/><stop offset="1" stop-color="#2a307b"/></linearGradient><linearGradient id="linear-gradient-3" x1="256.86" y1="297.59" x2="135.73" y2="118.23" gradientUnits="userSpaceOnUse"><stop offset="0" stop-color="#4857a3"/><stop offset="1" stop-color="#40509e"/></linearGradient><linearGradient id="linear-gradient-4" x1="-343.3" y1="2896.97" x2="-420.01" y2="2997.88" gradientTransform="translate(625.58 -2906.94) rotate(1.52)" xlink:href="#linear-gradient-2"/><linearGradient id="linear-gradient-5" x1="-334.89" y1="2903.37" x2="-411.59" y2="3004.28" gradientTransform="translate(625.58 -2906.94) rotate(1.52)" xlink:href="#linear-gradient-2"/><linearGradient id="linear-gradient-6" x1="-344.55" y1="2909.54" x2="-397.52" y2="3006.79" gradientTransform="translate(625.58 -2906.94) rotate(1.52)" xlink:href="#linear-gradient-2"/><linearGradient id="linear-gradient-7" x1="-822.59" y1="321.25" x2="-802.73" y2="321.25" gradientTransform="translate(-550.41) rotate(-180) scale(1 -1)" gradientUnits="userSpaceOnUse"><stop offset="0" stop-color="#6cc9f0"/><stop offset="1" stop-color="#3c519f"/></linearGradient><linearGradient id="linear-gradient-8" x1="-822.59" y1="317.35" x2="-803.29" y2="317.35" gradientTransform="translate(-550.41) rotate(-180) scale(1 -1)" xlink:href="#linear-gradient-2"/><linearGradient id="linear-gradient-9" x1="-820.76" y1="311.92" x2="-815.16" y2="311.92" gradientTransform="translate(-550.41) rotate(-180) scale(1 -1)" gradientUnits="userSpaceOnUse"><stop offset="0" stop-color="#f7baba"/><stop offset="1" stop-color="#f2908f"/></linearGradient><linearGradient id="linear-gradient-10" x1="-862.18" y1="320.82" x2="-854.57" y2="320.82" xlink:href="#linear-gradient-7"/><linearGradient id="linear-gradient-11" x1="-862.12" y1="314.96" x2="-850.95" y2="314.96" gradientTransform="translate(-550.41) rotate(-180) scale(1 -1)" xlink:href="#linear-gradient-2"/><linearGradient id="linear-gradient-12" x1="-856.32" y1="307.26" x2="-849.63" y2="307.26" xlink:href="#linear-gradient-9"/><linearGradient id="_17" x1="318.87" y1="197.67" x2="276.55" y2="275.32" gradientUnits="userSpaceOnUse"><stop offset="0" stop-color="#4857a3"/><stop offset=".25" stop-color="#41519f"/><stop offset="1" stop-color="#40509e"/></linearGradient><linearGradient id="linear-gradient-13" x1="262.42" y1="252.32" x2="304.73" y2="173.51" xlink:href="#linear-gradient-3"/><linearGradient id="linear-gradient-14" x1="-825.69" y1="209.81" x2="-849.49" y2="230.88" xlink:href="#linear-gradient-9"/><linearGradient id="linear-gradient-15" x1="-526.7" y1="184.19" x2="-506.99" y2="184.19" gradientTransform="translate(-318.59 162.93) rotate(165.82) scale(1 -1)" xlink:href="#linear-gradient-9"/><linearGradient id="linear-gradient-16" x1="-799.29" y1="161.72" x2="-799.5" y2="196.72" xlink:href="#linear-gradient-9"/><linearGradient id="linear-gradient-17" x1="-1223.81" y1="1808.34" x2="-1241.04" y2="1831.13" gradientTransform="translate(-715.45 -1808.51) rotate(-171.79) scale(1 -1)" xlink:href="#linear-gradient-9"/><linearGradient id="linear-gradient-18" x1="-1236.97" y1="1813.84" x2="-1216.39" y2="1813.84" gradientTransform="translate(-715.45 -1808.51) rotate(-171.79) scale(1 -1)" xlink:href="#linear-gradient-2"/><linearGradient id="linear-gradient-19" x1="-1249.05" y1="1826.39" x2="-1235.23" y2="1812.21" gradientTransform="translate(-715.45 -1808.51) rotate(-171.79) scale(1 -1)" xlink:href="#linear-gradient-9"/><linearGradient id="linear-gradient-20" x1="-130.7" y1="-43.37" x2="-333.04" y2="104.23" gradientTransform="translate(79.56 341.26) rotate(142.25) scale(1 -1)" xlink:href="#linear-gradient-2"/><linearGradient id="linear-gradient-21" x1="-123.61" y1="-10.52" x2="-96.96" y2="-33.69" gradientTransform="translate(79.56 341.26) rotate(142.25) scale(1 -1)" xlink:href="#linear-gradient-2"/><linearGradient id="linear-gradient-22" x1="-100.31" y1="-44.53" x2="-198.99" y2="56.89" gradientTransform="translate(79.56 341.26) rotate(142.25) scale(1 -1)" xlink:href="#linear-gradient-9"/><linearGradient id="linear-gradient-23" x1="-816.29" y1="220.42" x2="-840.09" y2="241.5" xlink:href="#linear-gradient-9"/><linearGradient id="linear-gradient-24" x1="-775.74" y1="220.37" x2="-769.03" y2="220.37" xlink:href="#linear-gradient-9"/><linearGradient id="linear-gradient-25" x1="-5478.19" y1="137.37" x2="-5467" y2="165.45" gradientTransform="translate(-5423.91) rotate(-180) scale(1 -1)" xlink:href="#linear-gradient-2"/><linearGradient id="linear-gradient-26" x1="-5722.06" y1="-443.14" x2="-5701.38" y2="-396.1" gradientTransform="translate(-5606.61 -613.08) rotate(-167.84) scale(1 -1)" xlink:href="#linear-gradient-9"/><linearGradient id="linear-gradient-27" x1="-5437.28" y1="317.12" x2="-5427.79" y2="317.12" gradientTransform="translate(-5423.91) rotate(-180) scale(1 -1)" xlink:href="#linear-gradient-3"/><linearGradient id="linear-gradient-28" x1="-5477.38" y1="354.54" x2="-5463.72" y2="194.92" gradientTransform="translate(-5423.91) rotate(-180) scale(1 -1)" xlink:href="#linear-gradient-9"/><linearGradient id="linear-gradient-29" x1="-5481.37" y1="315.38" x2="-5466.01" y2="315.38" gradientTransform="translate(-5423.91) rotate(-180) scale(1 -1)" xlink:href="#linear-gradient-3"/><linearGradient id="linear-gradient-30" x1="-5449.91" y1="356.92" x2="-5436.24" y2="197.25" gradientTransform="translate(-5423.91) rotate(-180) scale(1 -1)" xlink:href="#linear-gradient-9"/><linearGradient id="linear-gradient-31" x1="-64.9" y1="335.35" x2="93.51" y2="203.73" xlink:href="#linear-gradient-3"/><linearGradient id="linear-gradient-32" x1="-5478.88" y1="197.2" x2="-5476.31" y2="178.43" gradientTransform="translate(-5423.91) rotate(-180) scale(1 -1)" xlink:href="#linear-gradient-9"/><linearGradient id="linear-gradient-33" x1="-5468.3" y1="206.34" x2="-5451.26" y2="206.34" gradientTransform="translate(-5423.91) rotate(-180) scale(1 -1)" xlink:href="#linear-gradient-9"/><linearGradient id="linear-gradient-34" x1="-5691.77" y1="-382.06" x2="-5669.39" y2="-421.9" gradientTransform="translate(-5597.75 -556.56) rotate(-168.8) scale(1 -1)" xlink:href="#linear-gradient-9"/><linearGradient id="linear-gradient-35" x1="-5686.96" y1="-416.75" x2="-5675.76" y2="-388.67" gradientTransform="translate(-5597.75 -556.56) rotate(-168.8) scale(1 -1)" xlink:href="#linear-gradient-2"/><linearGradient id="linear-gradient-36" x1="-5687.01" y1="-379.38" x2="-5664.62" y2="-419.22" gradientTransform="translate(-5597.75 -556.56) rotate(-168.8) scale(1 -1)" xlink:href="#linear-gradient-9"/><linearGradient id="linear-gradient-37" x1="-5726.15" y1="-441.35" x2="-5705.47" y2="-394.3" gradientTransform="translate(-5606.61 -613.08) rotate(-167.84) scale(1 -1)" xlink:href="#linear-gradient-9"/><linearGradient id="linear-gradient-38" x1="92.53" y1="146.2" x2="98.1" y2="146.2" gradientTransform="matrix(1, 0, 0, 1, 0, 0)" xlink:href="#linear-gradient-9"/></defs><g id="Capa_1"><g><g><g><path d="M77.28,167.68s.87-36.37-15.89-46.11c-16.75-9.74-48.61-15.82-49.8-68.05-.7-30.58-1.46-43.95-1.96-49.78C9.43,1.47,11.45-.36,13.69,.06c15.87,2.99,67.41,15.29,78.22,50.47,12.81,41.71-14.63,117.15-14.63,117.15Z" style="fill:#95b0dd;"/><path d="M25.96,14.59c17.42,15.53,37.56,43.02,48.29,70.52,1.38,4.53,5.41,14.17,7.16,31.28,1.56,14.28,.79,29.36-1.11,39.35-.12,.63-.73,1.05-1.36,.93-1.09-.21-.94-1.37-.93-1.34,2.16-17.06,1.27-38.3-3.69-57.46-6.34-23.53-20.47-46.34-35.09-65.69l-1.5-1.91c-11.33-14.55-13.71-14.65-12.65-15.67,.25-.24,.64-.24,.9-.02Z" style="fill:#beceeb;"/></g><g><path d="M104.2,237.62c2.27,1.11-21.46-28.72-28.89-75.58-3.5-22.08-3.55-49.75-16.13-60.41-10.47-8.87-46.09-3.27-57.75-1.14-1.46,.27-1.95,2.11-.81,3.06,5.59,4.69,17.55,15.77,20.66,26.93,4.11,14.71,18.09,24.06,30.61,26.6,12.52,2.53,19.48,4.99,25.58,25.01,6.1,20.02,20.28,52.38,26.72,55.54Z" style="fill:#beceeb;"/><path d="M17.83,106.7c14.87,.62,30.83,7.41,38.93,20.13l.76,1.21c1.77,2.85,11.77,23.09,17.33,39.86,.07,.21-.04,.43-.25,.5-.36,.12-.53-.27-.5-.24-3.87-9.48-9.43-21.49-13.86-30.48-4.75-9.81-8.08-16.45-18.91-22.81-12.06-6.85-23.58-7.56-23.55-7.55-.18-.02-.3-.18-.29-.35,.02-.17,.16-.29,.33-.29Z" style="fill:url(#linear-gradient);"/></g><g><path d="M94.03,241.54c1.35,.71-7.58-14.65-8.26-28.18-.68-13.53-3.74-36.62-15.4-50.43-11.67-13.81-24.44-15.07-40.54-2.52-13.42,10.46-21.78,15.75-26.69,16.73-1.22,.24-1.84,1.61-1.24,2.7,3.15,5.8,12.05,19.11,26.99,18.17,19.06-1.2,42.16-13.59,49.2-3.25,7.04,10.34,6.14,16.12,6.35,21.02,.22,4.9,.7,21.06,9.6,25.75Z" style="fill:#95b0dd;"/><path d="M26.07,177c6.94-5.6,18.24-11.1,28.11-10.07,12.85,1.74,21.41,8.96,26.07,19.71,1.83,4.56,2.58,7,3.65,12.6,.09,.45-.7,.58-.83,.14-.79-2.63-1.56-5.38-2.73-8.23-6.77-18.36-21.23-20.83-21.79-21.21-1.09,.09-7.72-4.08-23.44,3.04-2.94,1.34-5.79,2.88-8.48,4.57h-.01c-.19,.13-.47,.1-.62-.06-.13-.15-.11-.36,.05-.49Z" style="fill:#beceeb;"/></g></g><g><g><path d="M91.79,34.93l166.71,4.42c9.2,.24,16.59,7.65,16.81,16.85l5.9,242.03c.18,7.2-5.64,13.11-12.84,13.05l-191.17-1.59c-6.76-.06-12.17-5.65-11.99-12.41l6.45-243.26c.29-10.83,9.3-19.37,20.12-19.08Z" style="fill:url(#linear-gradient-2);"/><path d="M105.26,306.25s-.01,0-.02,0l-21.37-.84c-7.11-.28-12.74-6.29-12.55-13.41l.86-32.28c0-.21,.18-.38,.39-.38,0,0,0,0,.01,0,.21,0,.38,.18,.38,.4l-.86,32.28c-.18,6.69,5.12,12.35,11.81,12.61l21.37,.84c.21,0,.38,.19,.37,.4,0,.21-.18,.37-.39,.37Z" style="fill:#95b0dd;"/><path d="M72.82,250.12s0,0-.01,0c-.21,0-.38-.18-.38-.4l.14-5.23c0-.21,.18-.38,.39-.38,0,0,0,0,.01,0,.21,0,.38,.18,.38,.4l-.14,5.23c0,.21-.18,.38-.39,.38Z" style="fill:#95b0dd;"/><path d="M92.35,32.98c22.68,3.69,100.72,15.31,165.58,12.06,2.96-.15,5.46,2.16,5.54,5.12l6.47,243.12c.09,3.33-2.53,6.11-5.86,6.22-27.27,.89-139.54,4.15-179.42-1.1-2.43-.32-4.22-2.42-4.17-4.86l5.26-255.04c.07-3.46,3.19-6.06,6.61-5.51Z" style="fill:url(#linear-gradient-3);"/><path d="M98.66,45.69c21.15,3.44,93.92,14.28,154.4,11.25,2.76-.14,5.09,2.01,5.17,4.77l6.03,226.71c.08,3.11-2.36,5.7-5.47,5.8-25.43,.83-130.12,3.87-167.31-1.03-2.26-.3-3.94-2.25-3.89-4.54l4.9-237.83c.07-3.23,2.97-5.66,6.16-5.14Z" style="fill:#beceeb;"/><path d="M186.36,4.46C180.45,.11,175.21,.05,171.49,1.04c-3.39,.9-5.65,4.09-5.43,7.59l1.13,17.39,18.87,2.18s11.88-15.22,.29-23.75Zm-8.69,13.78c-2.6-.07-4.66-2.24-4.59-4.84,.07-2.6,2.24-4.66,4.84-4.59,2.6,.07,4.66,2.24,4.59,4.84-.07,2.61-2.24,4.66-4.84,4.59Z" style="fill:url(#linear-gradient-4);"/><path d="M168.95,19.19c-.33-.13-.57-.44-.59-.81l-.18-2.77c-.03-.52,.36-.96,.87-1,.52-.03,.96,.36,1,.87l.18,2.77c.03,.52-.36,.96-.87,1-.14,0-.28-.01-.41-.06Zm-.35-5.43c-.33-.13-.57-.44-.59-.81l-.14-2.1c-.23-3.56,2.09-6.81,5.53-7.73,2.35-.63,4.76-.66,7.15-.1,.5,.12,.82,.62,.7,1.13-.12,.5-.62,.82-1.13,.7-2.09-.49-4.19-.46-6.25,.09-2.57,.69-4.31,3.12-4.14,5.79l.14,2.1c.03,.52-.36,.96-.87,1-.14,0-.28-.01-.41-.06Z" style="fill:#beceeb;"/><path d="M141.08,36.56l.23-8.72c.08-3.01,2.64-5.36,5.65-5.17l60.09,3.65c2.67,.16,4.77,2.33,4.86,5l.28,8.4-71.11-3.15Z" style="fill:url(#linear-gradient-5);"/><path d="M161.22,25.87l2.59,.07-2.59-.07Z" style="fill:#beceeb;"/><path d="M144.08,34.32c-.36-.14-.6-.49-.59-.9l.09-3.53c.04-1.45,.64-2.8,1.69-3.79,1.05-1,2.43-1.53,3.88-1.49l9.51,.25c.51,.02,.93,.44,.91,.96-.01,.52-.44,.93-.96,.91l-9.51-.25c-1.96-.05-3.59,1.5-3.65,3.46l-.09,3.53c-.01,.52-.44,.93-.96,.91-.11,0-.22-.03-.32-.07Z" style="fill:#beceeb;"/><path d="M122.32,32.86l105.17,2.78c3.78,.1,6.94,2.91,7.49,6.65l.08,.52c.6,4.1-2.64,7.75-6.79,7.64l-107.9-2.86c-2.48-.07-4.4-2.19-4.21-4.66l.36-4.82c.23-3.02,2.78-5.33,5.8-5.25Z" style="fill:url(#linear-gradient-6);"/></g><g style="opacity:.89;"><g><path d="M127.25,189.26s-.04,0-.05,0l-19.59-.08c-2.82-.01-5.16-1.94-5.45-4.49l-1.81-16.43c-.11-.98,.19-1.95,.84-2.73,.73-.87,1.83-1.42,3.02-1.51h0c1.65-.12,3.93-.33,6.43-.56,5.45-.49,11.63-1.06,15.26-1.12,.03,0,.05,0,.08,0,2.6-.01,4.84,1.56,5.47,3.84,1.04,3.77,.99,10.92,.84,18.54-.05,2.5-2.31,4.52-5.04,4.54Zm-22.93-23.64c-.77,.06-1.46,.4-1.91,.94-.37,.44-.54,.99-.48,1.53l1.81,16.43c.19,1.74,1.85,3.06,3.86,3.07l19.59,.08s.03,0,.04,0c1.87-.01,3.42-1.34,3.45-2.97,.15-7.49,.2-14.51-.79-18.08-.44-1.58-2.15-2.75-3.98-2.67-3.57,.06-9.99,.65-15.14,1.12-2.51,.23-4.8,.44-6.46,.56h0Z" style="fill:#fff;"/><path d="M106.43,167.25c4.11-.3,13.05-1.26,17.3-1.34,1.8-.03,3.38,1.04,3.81,2.6,.84,3.02,.76,9.06,.65,14.63-.03,1.67-1.56,3.01-3.43,3l-15.66-.06c-1.93,0-3.53-1.31-3.72-3.02l-1.45-13.13c-.15-1.36,.97-2.57,2.5-2.68Z" style="fill:#fff; opacity:.6;"/><g style="opacity:.6;"><path d="M144.29,172.1c-.85-.02-1.37,.65-1.15,1.47l1.83,6.78c.22,.82,1.1,1.5,1.96,1.49l98.76-.55c.85,0,1.53-.71,1.51-1.56l-.12-4.2c-.02-.85-.74-1.57-1.6-1.58l-101.2-1.84Z" style="fill:#fff;"/></g></g><g><path d="M126.82,232.71s-.04,0-.05,0l-19.59-.08c-2.82-.01-5.16-1.94-5.45-4.49l-1.81-16.43c-.11-.98,.19-1.95,.84-2.73,.73-.87,1.83-1.42,3.02-1.51h0c1.65-.12,3.93-.33,6.43-.56,5.45-.49,11.63-1.06,15.26-1.12,.03,0,.05,0,.08,0,2.6-.01,4.84,1.56,5.47,3.84,1.04,3.77,.99,10.92,.84,18.54-.05,2.5-2.31,4.52-5.04,4.54Zm-22.93-23.64c-.77,.06-1.46,.4-1.91,.94-.37,.44-.54,.99-.48,1.53l1.81,16.43c.19,1.74,1.85,3.06,3.86,3.07l19.59,.08s.03,0,.04,0c1.87-.01,3.42-1.34,3.45-2.97,.15-7.49,.2-14.51-.79-18.08-.44-1.58-2.15-2.75-3.98-2.67-3.57,.06-9.99,.65-15.14,1.12-2.51,.23-4.8,.44-6.46,.56h0Z" style="fill:#fff;"/><path d="M106.01,210.7c4.11-.3,13.05-1.26,17.3-1.34,1.8-.03,3.38,1.04,3.81,2.6,.84,3.02,.76,9.06,.65,14.63-.03,1.67-1.56,3.01-3.43,3l-15.66-.06c-1.93,0-3.53-1.31-3.72-3.02l-1.45-13.13c-.15-1.36,.97-2.57,2.5-2.68Z" style="fill:#fff; opacity:.6;"/><g style="opacity:.6;"><path d="M143.87,215.55c-.85-.02-1.37,.65-1.15,1.47l1.83,6.78c.22,.82,1.1,1.5,1.96,1.49l98.76-.55c.85,0,1.53-.71,1.51-1.56l-.12-4.2c-.02-.85-.74-1.57-1.6-1.58l-101.2-1.84Z" style="fill:#fff;"/></g></g><g><path d="M126.4,276.16s-.04,0-.05,0l-19.59-.08c-2.82-.01-5.16-1.94-5.45-4.49l-1.81-16.43c-.11-.98,.19-1.95,.84-2.73,.73-.87,1.83-1.42,3.02-1.51h0c1.65-.12,3.93-.33,6.43-.56,5.45-.49,11.63-1.06,15.26-1.12,.03,0,.05,0,.08,0,2.6-.01,4.84,1.56,5.47,3.84,1.04,3.77,.99,10.92,.84,18.54-.05,2.5-2.31,4.52-5.04,4.54Zm-22.93-23.64c-.77,.06-1.46,.4-1.91,.94-.37,.44-.54,.99-.48,1.53l1.81,16.43c.19,1.74,1.85,3.06,3.86,3.07l19.59,.08s.03,0,.04,0c1.87-.01,3.42-1.34,3.45-2.97,.15-7.49,.2-14.51-.79-18.08-.44-1.58-2.15-2.75-3.98-2.67-3.57,.06-9.99,.65-15.14,1.12-2.51,.23-4.8,.44-6.46,.56h0Z" style="fill:#fff;"/><path d="M105.58,254.15c4.11-.3,13.05-1.26,17.3-1.34,1.8-.03,3.38,1.04,3.81,2.6,.84,3.02,.76,9.06,.65,14.63-.03,1.67-1.56,3.01-3.43,3l-15.66-.06c-1.93,0-3.53-1.31-3.72-3.02l-1.45-13.13c-.15-1.36,.97-2.57,2.5-2.68Z" style="fill:#fff; opacity:.6;"/><g style="opacity:.6;"><path d="M143.45,259c-.85-.02-1.37,.65-1.15,1.47l1.83,6.78c.22,.82,1.1,1.5,1.96,1.49l98.76-.55c.85,0,1.53-.71,1.51-1.56l-.12-4.2c-.02-.85-.74-1.57-1.6-1.58l-101.2-1.84Z" style="fill:#fff;"/></g></g><g><path d="M114.28,113.14h-7.31v-32.99h-7.55v-6.45h22.42v6.45h-7.55v32.99Z" style="fill:#fff;"/><path d="M142.82,113.14l-2.27-9.95h-10.28l-2.27,9.95h-7.34l9.77-39.6h9.95l9.79,39.6h-7.36Zm-3.64-16.46l-2.1-9.17c-.13-.56-.41-1.96-.85-4.19-.44-2.24-.71-3.74-.8-4.49-.23,1.55-.53,3.25-.89,5.11-.36,1.86-1.29,6.11-2.81,12.75h7.45Z" style="fill:#fff;"/><path d="M176.33,113.14h-7.63l-5.64-14.14-5.23,14.14h-7.63l9.01-20.5-8.34-18.94h7.39l5.21,12.98,4.51-12.98h7.69l-8.34,19.26,9.01,20.18Z" style="fill:#fff;"/></g><path d="M108.38,168.6h0c1.35-.79,3.08-.32,3.84,1.04l3.58,6.41c.36,.64,1.29,.6,1.6-.07l8.87-19.76c.44-.99,1.91-.65,1.89,.43-.09,6.04-1.69,17.53-11.35,27.14,0,0-5.32-2.07-9.61-11.48-.62-1.36-.11-2.97,1.17-3.73Z" style="fill:#d67086;"/><path d="M110.34,213.44h0c1.35-.79,3.08-.32,3.84,1.04l3.58,6.41c.36,.64,1.29,.6,1.6-.07l8.87-19.76c.44-.99,1.91-.65,1.89,.43-.09,6.04-1.69,17.53-11.35,27.14,0,0-5.32-2.07-9.61-11.48-.62-1.36-.11-2.97,1.17-3.73Z" style="fill:#d67086;"/></g><g style="opacity:.6;"><path d="M184.52,77.09c-.85-.02-1.4,.65-1.21,1.48l.93,4.11c.19,.83,1.04,1.51,1.9,1.51l59.23-.33c.85,0,1.54-.71,1.52-1.56l-.05-2.23c-.02-.85-.74-1.57-1.59-1.59l-60.73-1.38Z" style="fill:#fff;"/></g><g style="opacity:.6;"><path d="M184.55,91.83c-.85-.02-1.4,.65-1.21,1.48l.93,4.11c.19,.83,1.04,1.51,1.9,1.51l59.23-.33c.85,0,1.54-.71,1.52-1.56l-.05-2.23c-.02-.85-.74-1.57-1.59-1.59l-60.73-1.38Z" style="fill:#fff;"/></g><g style="opacity:.6;"><path d="M184.51,105.98c-.85-.02-1.4,.65-1.21,1.48l.93,4.11c.19,.83,1.04,1.51,1.9,1.51l59.23-.33c.85,0,1.54-.71,1.52-1.56l-.05-2.23c-.02-.85-.74-1.57-1.59-1.59l-60.73-1.38Z" style="fill:#fff;"/></g><g style="opacity:.6;"><path d="M100.46,128.02c-.85-.02-1.39,.64-1.19,1.47l1.21,4.99c.2,.83,1.07,1.51,1.92,1.5l72.66-.24c.85,0,1.54-.7,1.52-1.56l-.07-2.87c-.02-.85-.73-1.57-1.59-1.59l-74.47-1.71Z" style="fill:#fff;"/></g></g><g><g><g><path d="M252.88,320.29c3.4,.29,9.31,.77,13.96,.98,2.8,.12,4.41-.15,5.34-.52,0,.1,0,.2,0,.3-.02,.49-.42,.88-.91,.91-8.8,.49-15.79,.17-18.28,.02-.51-.03-.82-.59-.56-1.03,.13-.22,.29-.43,.46-.65Z" style="fill:url(#linear-gradient-7);"/><path d="M266.84,321.26c-4.65-.2-10.56-.68-13.96-.98,3.34-4.1,13.96-6.87,13.96-6.87h3c2.06,2.97,2.36,5.8,2.34,7.32-.93,.37-2.54,.65-5.34,.52Z" style="fill:url(#linear-gradient-8);"/><path d="M270.34,308.52l-.28,5.55c-.03,.6-.48,1.11-1.08,1.19-.6,.09-1.4,.1-2.25-.19-.52-.17-.91-.62-1.01-1.15l-.97-5.41h5.59Z" style="fill:url(#linear-gradient-9);"/></g><g><g><path d="M309.29,321.22c1.48-.21,2.14-.97,2.42-1.79,0,0,0,.01,0,.02,.22,.86-.29,1.76-1.29,2.19-1.22,.51-2.55,.6-3.58,.56-1.11-.05-2.12-.5-2.68-1.24h0c1.11,.54,2.67,.6,5.13,.26Z" style="fill:url(#linear-gradient-10);"/><path d="M302.33,308.48h2.47c3.77-.08,6.13,7.87,6.91,10.94-.28,.82-.95,1.59-2.42,1.79-2.46,.34-4.02,.28-5.13-.27-2.03-2.68-3.04-6.6-3.53-8.89-.55-2.6,1.7-3.58,1.7-3.58Z" style="fill:url(#linear-gradient-11);"/></g><path d="M304.49,303.33l1.37,5.46c.17,.67-.15,1.36-.77,1.68-.77,.39-1.85,.81-2.84,.69-.47-.06-.86-.39-1.01-.83l-2.02-5.75,5.27-1.26Z" style="fill:url(#linear-gradient-12);"/></g><path d="M306.12,304.91c-1.71,1.52-7.27,1.72-7.27,1.72-20.02-48.04-28.2-54.87-28.2-54.87,2.89,18.13,.47,58.28,.47,58.28-3.3,1.46-7.56,0-7.56,0-.27-29.69-4.83-55.57-10.22-75.98,13.53-.3,20.72-4.93,23.07-6.79,11.28,18.18,29.71,77.65,29.71,77.65Z" style="fill:url(#_17);"/><path d="M272.97,172.01c2.56,12.77,1.64,35.63,1.04,46.06-.17,2.93,1.88,6.99,3.53,9.77,.26,.43,.1,.99-.35,1.22-2.77,1.42-12.15,5.83-23.02,6.38-.72,.04-1.37-.46-1.56-1.16-8.06-30.11-17.43-49.35-17.43-49.35,10.34-16.51,37.79-12.92,37.79-12.92Z" style="fill:#d67086;"/><path d="M269.29,250.62c.11,0,.23-.03,.33-.09,.3-.18,.4-.58,.21-.88-.11-.18-2.7-4.36-7.94-6.89-.32-.15-.7-.02-.86,.3-.15,.32-.02,.7,.3,.86,4.88,2.36,7.37,6.36,7.4,6.4,.12,.2,.33,.31,.55,.31Z" style="fill:url(#linear-gradient-13);"/><g><path d="M289.04,208.67c-.82,5.95-3.25,12.44-8.11,19.33l-1.85-1.51s2.13-8.66,.92-18.48c3-.59,6.54,.02,9.04,.65Z" style="fill:url(#linear-gradient-14);"/><path d="M270.11,187.77l2.86-15.76s19.11,14.61,16.06,36.66c-2.5-.63-6.04-1.24-9.04-.65-.87-7.08-3.48-14.76-9.88-20.25Z" style="fill:#d67086;"/></g><g><path d="M234.89,185.06l11.04,13.6c1.19,9.59-2.79,14.87-7.78,17.78-1.41-4.15-3.34-7.31-4.94-9.42,5.09-8.84,1.68-21.95,1.68-21.95Z" style="fill:#d67086;"/><path d="M233.21,207.01c1.59,2.12,3.53,5.27,4.94,9.42-12.96,9.21-19.44,3.52-19.44,3.52v-1.82c0-1.61,1.07-3.05,2.63-3.46,5.21-1.37,10.03-4.44,11.88-7.67Z" style="fill:url(#linear-gradient-15);"/></g><path d="M241.98,165.33l3.56,13.09c.4,1.47,1.99,2.26,3.41,1.69,1.53-.61,3.46-1.44,5.13-2.34,1.78-.96,2.34-3.25,1.21-4.93l-7.4-11.04-5.91,3.53Z" style="fill:url(#linear-gradient-16);"/></g><g><path d="M234.19,155.38c-.03,.22,2.97,14.94,2.97,14.94l8.36-1.89-.77-14.37s-10.02-2.44-10.56,1.32Z" style="fill:url(#linear-gradient-17);"/><path d="M242.87,157.26l1,7.53c.01,.1,.01,.19,0,.29-.08,.59-.52,2.6-2.55,2.03-1.84-.52-3.53-.97-4.7-.61-.52,.16-.84,.69-.73,1.23,.27,1.34,.94,4.34,1.93,6.86,.2,.51,.76,.78,1.29,.63,1.59-.46,4.91-1.53,7.37-3.02,.33-.2,.53-.57,.52-.96-.08-1.9-.3-7.68-.12-9.3,.18-1.52,2.04-2.43,2.85-2.76,.27-.11,.47-.32,.58-.58,.38-.94,.89-3.12-1.85-4.01-.57-.19-.88-.81-.67-1.37,.41-1.13,.58-2.86-1.55-3.81-2.16-.97-3.77,.18-4.64,1.12-.35,.38-.92,.44-1.35,.16-.25-.16-.57-.21-.96,.03-.52,.32-1.21,.1-1.48-.45-.52-1.06-1.57-2.2-3.68-1.83-3.75,.64-4.17,4.8-3.18,7.23,.99,2.43,5.01,1.51,7.03,.28,1.54-.93,3.53,.04,4.39,.57,.27,.17,.46,.45,.5,.76Z" style="fill:url(#linear-gradient-18);"/><path d="M247.22,164.67s-1.54-4.32,.04-5.37c1.58-1.06,3.93-.51,3.41,2.62-.64,3.89-3.45,2.75-3.45,2.75Z" style="fill:url(#linear-gradient-19);"/></g><g><g><path d="M309.2,191.16l-140.68,46.17,6.71,20.73,141.49-45.04c3.01-.96,4.88-3.93,4.47-7.06-.42-3.21-1.87-7.62-5.81-12.86-1.43-1.9-3.92-2.68-6.19-1.94Z" style="fill:url(#linear-gradient-20);"/><g><path d="M131.16,259.56l16.68-9.93c1.61,2.11,3.02,5.35,3.11,10.27l-19.22,1.46c-1.02,.08-1.45-1.27-.57-1.8Z" style="fill:url(#linear-gradient-21);"/><path d="M168.53,237.33c8.56,9.62,6.71,20.73,6.71,20.73l-24.29,1.84c-.09-4.91-1.5-8.16-3.11-10.27l20.68-12.3Z" style="fill:url(#linear-gradient-22);"/></g></g><path d="M311.68,197.19c.13-.1,.19-.28,.14-.45-.07-.22-.3-.33-.52-.26l-134.41,44.41c-.22,.07-.33,.3-.26,.52,.07,.22,.3,.33,.52,.26l134.41-44.41s.09-.04,.12-.06Z" style="fill:#95b0dd;"/><path d="M314.79,204.96c.13-.1,.19-.28,.14-.45-.07-.22-.3-.33-.52-.26l-134.41,44.41c-.22,.07-.33,.3-.26,.52,.07,.22,.3,.33,.52,.26l134.41-44.41s.09-.04,.12-.06Z" style="fill:#95b0dd;"/></g><path d="M279.84,226.24l-8.63-.7-3.74,3.44s.88,1.22,3.65,.52c2.76-.7,6.55-.87,6.55-.87,0,0,3.81,1.72,3.86-1.5l-1.69-.89Z" style="fill:url(#linear-gradient-23);"/><path d="M224.44,223.55c-.75,.58-3.3-.63-4.87-1.48-.76-.41-1.13-1.3-.87-2.13,.38-1.19,1-2.72,1.78-2.91,1.28-.32,7.03,4.11,3.96,6.51Z" style="fill:url(#linear-gradient-24);"/></g><g><path d="M47.65,152.47s-3.77,1.84-4.47,3.94c-.56,1.69-4.73,1.91-5.14,5.24-.21,1.72-1.48,3.09-3.19,3.36-4.26,.65-10.83,2.87-11.88,10.26-.8,5.65,2.08,7.79,5.1,8.53,2.22,.54,3.69,2.7,3.24,4.94-.43,2.15,.21,4.63,3.93,6.6,8.34,4.4,16.67-10.43,16.67-10.43l1.71-25.89-5.98-6.55Z" style="fill:url(#linear-gradient-25);"/><path d="M93.04,146.33s-16.66,26.35-36.46,31.43c0,0,3.86,10.99,6.84,12.25,0,0,24.37-20.33,30.63-39.94l-1-3.74Z" style="fill:url(#linear-gradient-26);"/><path d="M13.36,314.84l-.54,4.44c-.1,.84-.77,1.51-1.61,1.6-1.42,.16-3.71,.33-5.94,.09-.98-.1-1.62-1.1-1.32-2.04,.54-1.71,1.54-4.28,2.98-5.8h4.92c.91,0,1.62,.8,1.51,1.7Z" style="fill:url(#linear-gradient-27);"/><path d="M51.92,262.85l.83,4.89s-2.78,28.19-3.28,39.46c-.08,1.77,.38,3.51,1.31,5.02l4.84,7.86-12.3-7.26-.24-1.5,2.01-2.77-2.64-31.57c-.15-1.85,.23-3.72,1.1-5.36l2.54-4.78,5.82-3.99Z" style="fill:url(#linear-gradient-28);"/><path d="M56.43,321.22h-3.92c-.73,0-1.43-.34-1.88-.92-1.22-1.59-3.76-4.69-4.97-4.77-1.63-.11-1.42,5.69-1.42,5.69h-.91l-1.16-7.21c-.29-1.81,.61-3.61,2.24-4.46,0,0,.37,2.76,2.4,3.98,2.02,1.22,8.23,5.59,8.23,5.59,0,0,.76-.11,1.59,.04,1.24,.22,1.07,2.06-.19,2.06Z" style="fill:url(#linear-gradient-29);"/><path d="M35.07,265.18s-16.3,30.92-18.89,37.98c-2.59,7.06-3.5,12.95-3.53,13.51-.05,.87-1.14,1.71-4.13,1.71-1.54,0-2.3-.62-2.67-1.22-.32-.51-.33-1.15-.07-1.69,.94-1.91,3.94-8.01,5.04-10.77,1.32-3.3,4.17-18.27,5.73-23.47,1.56-5.2,3.33-10.85,10.12-16.05,0,0,4.67-4.57,8.39,0Z" style="fill:url(#linear-gradient-30);"/><path d="M45.37,214.51c4.2-17.82-6.45-27.9-6.45-27.9,6.72-6.45,18.97-9.39,18.97-9.39,0,0,11.69,8.54,10.3,15.23-.81,3.92-8.21,23.48-8.21,23.48,0,0-6.84,3.24-14.61-1.42Z" style="fill:#d67086;"/><path d="M36.05,223.33c1.71-5.16,9.32-8.82,9.32-8.82,7.76,4.66,14.61,1.42,14.61,1.42,0,0,1.53,5.87,.48,11.32-1.06,5.45-7.71,40.49-7.71,40.49-10.47,2.12-26.58-2.13-26.58-2.13,6.67-11.84,8.17-37.12,9.88-42.28Z" style="fill:url(#linear-gradient-31);"/><path d="M50.25,165.45l-3.42,15.36c-.33,1.35,.91,1.13,2.27,.87,2.24-.42,5.13-1.29,6.09-3.03,.1-.18,.15-.38,.17-.58l1.47-10.65c.12-.84-.34-1.66-1.12-2.01l-2.83-1.26c-1.09-.48-2.35,.14-2.64,1.3Z" style="fill:url(#linear-gradient-32);"/><path d="M38.92,186.61s-23.86,17.07-3.05,35.01c0,0,.79,.9,2.35,1.36,.79,.24,3.12,2,4.3,2.92,.38,.3,.93,.19,1.18-.21,.2-.32,.22-.72,.06-1.06l-2.95-6.25c-.82-.77-2.08-.82-2.96-.13-.56,.44-1.39,.26-1.7-.39-1.61-3.28-4.65-12.91,7.79-23.8,.47-.41,.59-1.09,.3-1.64-.87-1.68-2.87-5.01-5.32-5.82Z" style="fill:url(#linear-gradient-33);"/><g><path d="M56.8,151.45s3.64,2.46,5.2,8.74c1.56,6.27-.98,8.52-3.58,8.39-2.61-.14-6.38-.94-9.66-5.44-3.27-4.5,3.27-14.69,8.03-11.68Z" style="fill:url(#linear-gradient-34);"/><path d="M52.07,160.6s-1.33-8.99,6.13-7.62l1.51,1.57s3.65-4.11-.39-7.22c-4.04-3.11-9.65-2.31-12.76,3.35-3.1,5.66-4.23,9.64-1.63,13.16,2.6,3.52,4.56,.5,4.56,.5,0,0-1.19-3.05-.2-4.35,.99-1.31,2.27,.76,2.27,.76l.51-.15Z" style="fill:url(#linear-gradient-35);"/><path d="M51.05,161.37s-.66-4.63-3.02-3.3c-2.36,1.32,.85,4.32,2.14,5.34l.88-2.04Z" style="fill:url(#linear-gradient-36);"/></g><g><path d="M92.93,151.76c.05,.54-1.97,.92-2.61-1.4,.18-1.01,.49-5.41,1.26-6.09,4.11-3.64,11.43-7.74,11.43-7.74,.82,1.25-.26,2.07-.26,2.07l-3.66,2.47c.38,1.26,.94,2.38,1,3.82,.05,1.09-.36,2.16-1.08,2.99-.73,.83-1.71,1.9-2.59,2.72-1.67,1.54-3.5,1.16-3.5,1.16Z" style="fill:url(#linear-gradient-37);"/><path d="M94.91,149.96l-.56-.23c.07-.18,1.83-4.44,2.68-5.33,.32-.34,.48-.62,.46-.86,0-.13-.07-.25-.19-.38l-2.96,1.58-1.31,2.05-.51-.33,1.39-2.18,3.47-1.85,.16,.13c.35,.29,.53,.59,.55,.94,.03,.41-.18,.84-.63,1.31-.64,.67-2.06,3.94-2.56,5.14Z" style="fill:url(#linear-gradient-38);"/></g></g></g></g></svg>