<?xml version="1.0" encoding="UTF-8"?><svg id="Layer_2" xmlns="http://www.w3.org/2000/svg" viewBox="0 0 341.5 248.13"><g id="Capa_1"><g><g><polygon points="98.46 224.4 98.46 238.62 103.57 238.62 106.01 222.62 98.46 224.4" style="fill:#efc0a6;"/><polygon points="127.53 221.59 130.3 239.48 136.3 239.23 135.52 221.24 127.53 221.59" style="fill:#efc0a6;"/><polygon points="96.01 172.4 96.01 217.73 96.01 225.51 106.68 225.06 112.68 193.73 119.8 164.71 96.01 172.4" style="fill:#8ea9d8;"/><polygon points="136.38 162.58 137.71 222.65 125.71 222.62 123.1 201.73 112.12 166.32 136.38 162.58" style="fill:#8ea9d8;"/><path d="M105.61,94.31c-.09,.03-.18,.07-.27,.1-4.32,1.68-7.71,9.22-9.65,13.64-5.02,11.43-7.21,23.34-7.6,35.98-.21,6.8-.13,13.62,.08,20.42,.06,1.88,1.69,18.72,.86,19.12,8.55-4.12,17.25-8.02,26.35-10.37,9.1-2.35,18.68-3.13,27.88-.98-2.8-21.37-6.85-43.12-12.7-63.77-.7-2.47-1.17-5.1-2.2-7.44-1.19-2.7-2.98-3.49-5.25-5.09-.78-.55-1.56-1.1-2.41-1.48-4.49-2.01-10.54-1.82-15.08-.14Z" style="fill:#3b3487;"/><path d="M137.79,162.33c-11.39,1.74-30.33,3.07-41.72,4.8-.61-20.59,1.41-44.36,6.38-64.28,.9-3.61,2.23-7.51,5.39-9.35,3.38-1.97,10.56-1.7,12.62,2.13,3.02,5.6,3.62,14.53,4.96,20.76,3.05,14.11,10.47,31.63,12.36,45.94Z" style="fill:#eff4f1;"/><g><path d="M119.68,78.87c-1.69-8.38-12.17-6.8-15.09,.03-1.93,4.5,.87,11.11,5.4,13.02-.28,1.15-.51,2.3-.68,3.47,1.28,.07,2.57,.14,3.85,.22,.4,.02,.86,.01,1.1-.3,.14-.19,.16-.45,.17-.69,.03-.81,.07-1.62,.1-2.43,.1-.03,.2-.06,.29-.09,2.43-.83,4.17-3.11,4.87-5.58,.7-2.47,.49-5.11-.02-7.63Z" style="fill:#efc0a6;"/><g><path d="M118.62,81.16c1.33,2.52,.51,5.58-.23,8.2-.65,2.32-.76,3.8,1.87,3.96,1.49,.09,4.13,.29,5.21-1.01,.82-.99-.14-3.47-.77-4.41-.48-.72-1.48-.96-1.94-1.7-.19-.3-.27-.66-.33-1.01-.26-1.44-.29-2.91-.11-4.36,.12-.98,.35-1.96,.27-2.95-.11-1.43-1.38-2.91-2.11-4.12-1.37-2.25-5.3-4.93-7.83-2.57-.58,.54-.83,1.33-1.03,2.09-.12,.46-.23,.93-.15,1.39,.28,1.86,2.02,1.89,3.34,2.58,1.62,.85,2.98,2.3,3.82,3.91Z" style="fill:#353b86;"/><path d="M105.24,83.8c.11,1.33,1.04,2.68,.5,3.89-.24,.54-.73,.93-1.13,1.37-1.08,1.21-1.45,3.02-.93,4.55-2.64,.33-5.29,.66-7.93,.99-.4,.05-.82,.1-1.19-.05-.8-.32-1-1.33-1.09-2.19-.18-1.68-.34-3.49,.49-4.96,.38-.68,.95-1.25,1.33-1.94,1.83-3.3-1.27-8.06,1.14-10.96,1.07-1.3,2.88-1.67,4.31-2.56,2.49-1.55,3.8-4.61,6.39-5.99,4.89-2.61,10.94,2.88,8.62,8-1.89,4.17-10.94,4.49-10.5,9.84Z" style="fill:#353b86;"/></g></g><path d="M105.94,94.92s-3.62,51.12,4.31,61.2c7.94,10.08,11.33,13.88,11.33,13.88l-32.46,13.52s-8.22-70.44,16.81-88.59Z" style="fill:#3b3487;"/><polygon points="98.46 237.28 93.12 242.62 95.79 245.28 103.79 240.4 103.79 236.9 98.46 237.28" style="fill:#353b86;"/><polygon points="129.82 236.4 136.21 237.23 141.99 242.32 138.27 243.81 129.93 241.28 129.82 236.4" style="fill:#353b86;"/></g><g><polygon points="299.87 237.3 299.96 238.21 300.25 241.24 306.37 243.86 309 240.63 305.79 237.81 305.5 237.68 305.46 238.06 299.87 237.3" style="fill:#2a294a;"/><path d="M299.56,237.25l.31,.04-.2-2.11,5.83,2.5,4.85-51.09,.6-2.41c-4.58,.07-10.03,.14-15.52,.18l4.13,52.9Z" style="fill:#babcbe;"/><polygon points="299.87 237.3 305.46 238.06 305.5 237.68 299.67 235.18 299.87 237.3" style="fill:#909497;"/><path d="M275.06,184.33l1.13,13.37,11.31,34.67,5.53-.73,.09,.68h.03s-4.07-35.74-4.07-35.74l3.49-12.21c-6.42,.04-12.69,.04-17.5-.05Z" style="fill:#babcbe;"/><polygon points="287.5 232.37 287.15 232.42 284.62 235.89 287.97 238.58 293.43 234.72 293.11 232.32 287.71 233.03 287.5 232.37" style="fill:#2a294a;"/><polygon points="287.5 232.37 287.71 233.03 293.11 232.32 293.02 231.64 287.5 232.37" style="fill:#3f3e3c;"/><path d="M313.39,106.57c.71,3.35,3.36,5.8,5.94,8.12-1.91-4.89-3.89-9.21-5.79-12.93-.34,1.6-.49,3.2-.15,4.81Z" style="fill:#e0e0e1;"/><path d="M323.45,129.42c-.66,.68-1.43,1.26-2.26,1.71-2.12,1.13-4.58,1.49-6.98,1.49-1.92,0-3.88-.22-5.76,.19-1.88,.41-3.74,1.64-4.22,3.5-.26,1.03-.18,2.32-1.07,2.9-.42,.27-.94,.3-1.44,.31-1.52,.04-3.25,0-4.27-1.13-1.58-1.75-.66-5.25-2.8-6.25-.63-.29-1.35-.25-2.03-.36-2.89-.49-4.31-3.76-4.03-6.77,.06-.62,.19-1.23,.39-1.81,1.19-3.33,3.97-5.81,6.06-8.66,4.1-5.57,6.86-13.02,4.35-19.62-.24-.62-.5-1.24-.67-1.88-.09-.35-.15-.71-.16-1.07-.04-1.97,1.43-3.59,2.37-5.31,.09-.16,.17-.33,.25-.51,.19-.43,.35-.92,.48-1.44l-.41,.2c-.94,.8-2.03,1.35-3.24,1.54l-11.35,5.41-4.55,18.53-3.12,12.71-.05,.19-11.73,60.7c1.4,.18,4.2,.29,7.84,.35,4.81,.08,11.09,.09,17.5,.05,.95,0,1.91-.01,2.87-.02,5.49-.04,10.94-.11,15.52-.18,7.03-.1,12.02-.2,12.02-.2,0,0,4.27-31.37,.48-54.56Z" style="fill:#47519f;"/><path d="M298.02,86.44c1.21-.19,2.3-.74,3.24-1.54l-3.24,1.54Z" style="fill:#e1cfb5;"/><path d="M298.56,69.87c-1.21-1.07-2.6-1.26-4.14-1.27-.73,0-.97,.18-1.35,.12-.17-.03-.36-.11-.64-.28-.55-.34-1.05-1.24-1.3-1.98-1.43,.91-2.47,2.54-2.76,5.03-.31,2.71-.31,5.56,.62,8.27,.93,2.71,2.91,5.26,5.48,6.26,.15,.06,.3,.11,.45,.16,1.1,.36,2.15,.43,3.12,.28l3.24-1.54c.16-.14,.32-.28,.47-.43,1.06-4.61-.09-11.89-3.17-14.6Z" style="fill:#f3c7b3;"/><path d="M320.4,115.65c-.35-.32-.71-.64-1.06-.96,.24,.6,.47,1.22,.7,1.84,.23,.62,.46,1.25,.69,1.89,.15,.41,.29,.83,.43,1.26-.14-.42-.28-.84-.43-1.26-.23-.64-.46-1.27-.69-1.89-.23-.62-.47-1.23-.7-1.84-2.59-2.32-5.23-4.78-5.94-8.12-.34-1.61-.19-3.21,.15-4.81,.55-2.57,1.59-5.15,1.86-7.77,.46-4.5,.1-10.97-1-15.37-1.17-4.71-3.73-8.96-6.81-12.67-3.73-4.5-10.65-9.53-15.56-3.64-.06,.07-.11,.14-.16,.21-.53-.27-1.09-.48-1.67-.64-3.39,2.85-4.26,7.45-3.91,11.67,.36,4.23,2.49,9.02,1.29,13.22-.12,.4-.27,.8-.26,1.22,0,.42,.2,.87,.59,1.02,.24,.09,.5,.06,.75,.03,2.07-.27,4.33-.63,5.74-2.17,.21-.23,.37-.46,.5-.69-.15-.05-.3-.1-.45-.16-2.57-1.01-4.55-3.55-5.48-6.26-.93-2.71-.93-5.56-.62-8.27,.29-2.49,1.33-4.12,2.76-5.03,.26,.73,.75,1.63,1.3,1.98,.28,.17,.47,.25,.64,.28,.38,.07,.62-.12,1.35-.12,1.54,.01,2.93,.21,4.14,1.27,3.08,2.72,4.23,10,3.17,14.6,2.9-2.9,4.07-8.28,2.16-12.3-.11-.23-.22-.45-.35-.67,.12,.22,.24,.44,.35,.67,1.91,4.02,.75,9.4-2.16,12.3-.02,.08-.04,.16-.06,.24-.13,.52-.29,1.01-.48,1.44-.08,.18-.16,.35-.25,.51-.95,1.73-2.41,3.34-2.37,5.31,0,.37,.07,.72,.16,1.07,.17,.64,.43,1.26,.67,1.88,2.52,6.6-.25,14.04-4.35,19.62-2.1,2.85-4.87,5.33-6.06,8.66-.21,.57-.33,1.18-.39,1.81-.28,3,1.14,6.28,4.03,6.77,.68,.12,1.4,.07,2.03,.36,2.14,.99,1.21,4.5,2.8,6.25,1.02,1.13,2.75,1.17,4.27,1.13,.5-.01,1.02-.04,1.44-.31,.89-.58,.8-1.87,1.07-2.9,.48-1.86,2.34-3.09,4.22-3.5,1.88-.41,3.83-.19,5.76-.19,2.4,0,4.86-.35,6.98-1.49,.83-.45,1.6-1.03,2.26-1.71-.08-.5-.17-.99-.25-1.48,.09,.49,.17,.98,.25,1.48,1.02-1.06,1.76-2.36,2.01-3.8,.65-3.84-2.18-7.35-5.06-9.97Zm-21.91-49.02c.4,.2,.79,.43,1.17,.68-.38-.25-.77-.48-1.17-.68Z" style="fill:#2a294a;"/><g><polygon points="255.63 77.99 254.01 75.07 254.87 72.25 254.37 71.76 253.74 72.36 253.79 69.82 252.5 68.21 249.76 68.35 247.62 70.22 248.05 72.92 250.11 75.45 252.15 79.55 255.63 77.99" style="fill:#f3c7b3;"/><polygon points="255.32 75.66 250.43 76.91 261 102.36 284.81 106.56 288.18 92.68 266.93 90.14 255.32 75.66" style="fill:#47519f;"/></g></g><g><g><polygon points="65.58 165.1 63.53 193.16 56.74 239.62 51.52 239.62 48.22 196.75 46.76 162.07 65.58 165.1" style="fill:#353b86;"/><polygon points="51.55 239 51.55 241.82 57.2 244.65 60.02 241.82 57.2 239 51.55 239" style="fill:#2a294a;"/></g><g><polygon points="28.6 158.48 30.58 197.82 35.12 242.98 40.47 242.98 44.82 200.19 51.17 155.16 28.6 158.48" style="fill:#353b86;"/><polygon points="40.44 242.34 40.44 245.23 34.66 248.13 31.77 245.23 34.66 242.34 40.44 242.34" style="fill:#2a294a;"/></g><g><path d="M46.82,95.41c-1.82-.18-3.65-.36-5.47-.54-.02-1.46,.08-2.93,.29-4.37-1.52-.53-3.28-1.33-3.55-2.92-.08-.5,0-1.01,.09-1.51,.35-2.07,.71-4.14,1.06-6.21,.12-.72,.25-1.45,.64-2.07,.68-1.08,2.01-1.55,3.26-1.77,3.2-.56,6.69,.13,9.18,2.22,.66,.56,1.26,1.23,1.55,2.04,.45,1.26,.12,2.64-.22,3.93-.31,1.19-.62,2.38-.93,3.57-.36,1.37-.87,2.93-2.19,3.44-.7,.27-1.53,.2-2.16,.6-1.12,.71-.96,2.38-1.55,3.57Z" style="fill:#f3c7b3;"/><path d="M59.63,74.27c.16-1.69,.25-3.08-.1-4.74-.2-.97-1.44-4.02-1.07-4.88-.7,1.49-2.61,1.91-4.25,2.07-6.16,.61-13.03-.91-18.69,2.25-1.03,.58-1.86,1.48-2.5,2.47-2.22,3.45-2.23,8.19-.01,11.65,.5,.77,1.09,1.48,1.72,2.16,1.29,1.4,2.84,3.13,4.62,3.64,.04-1.59-1.41-6.6-.2-7.9,1.71-1.83,4.82-1.47,7.05-1.16,2.85,.41,5.63,.38,8.51,.04,.93-.11,1.87-.22,2.73-.58,2.06-.86,1.99-2.78,2.17-4.73,0-.09,.02-.19,.03-.29Z" style="fill:#2a294a;"/></g><g><polygon points="8.27 133.6 7.88 137.04 9.82 139.4 9.53 140.06 8.7 139.74 9.75 142.16 9.15 144.21 6.46 145.16 3.68 144.22 3.02 141.45 3.99 138.22 4.32 133.48 8.27 133.6" style="fill:#f3c7b3;"/><polygon points="8.9 135.96 3.72 136.7 3.77 108.14 33.87 94.74 33.73 110.28 15.81 116.93 8.9 135.96" style="fill:#5862aa;"/></g><g><polygon points="70.83 59.52 71.01 56.07 68.93 53.83 69.18 53.15 70.03 53.42 68.84 51.08 69.3 48.99 71.93 47.88 74.77 48.64 75.59 51.36 74.82 54.65 74.78 59.4 70.83 59.52" style="fill:#f3c7b3;"/><polygon points="70.07 57.21 75.19 56.15 75.59 75.85 73.58 91.07 60.49 110.28 49.77 94.77 62.22 85.63 70.07 57.21" style="fill:#5862aa;"/></g><polygon points="51.16 94 33.87 94.74 25.14 127.96 17.93 174.02 73.58 175.37 60.49 110.28 51.16 94" style="fill:#5862aa;"/></g><g><polygon points="238.19 235.57 238.62 238.88 232.43 243.03 228.69 240.15 231.58 236.42 237.77 232.26 238.19 235.57" style="fill:#2a294a;"/><polygon points="238.4 234.46 233.63 192.28 239.37 145.06 238.08 135.02 212.43 134.05 211.5 150.39 215.81 192.35 232.01 236.61 238.4 234.46" style="fill:#2a294a;"/><polygon points="210.02 87.38 197.12 90.89 182.2 117.33 189.27 123.88 199.21 112.1 210.02 87.38" style="fill:#babcbe;"/><g><polygon points="193.61 138.77 193.54 181.33 202.11 236.13 208.27 236.06 211.66 185.4 219.6 134.68 193.61 138.77" style="fill:#2a294a;"/><polygon points="208.26 238.66 201.63 242.07 198.26 238.76 201.56 235.4 208.23 235.33 208.26 238.66" style="fill:#2a294a;"/></g><path d="M242.02,153.25c-.06-1.84-.16-3.38-.18-3.93-.13-4.95-.57-9.88-1.19-14.8-.56-4.4-1.26-15.33-2.01-19.71-.62-3.61-2.79-12.63-4.36-15.98-3.89-8.33-2.69-9.1-19.8-11.58-7.5-1.08-9.27,3.59-15.4,8.96-.6,.53-.57,3.69-.71,4.52-.25,1.47-.51,2.94-.82,4.4-.24,1.15-.5,2.29-.8,3.43h0s-5.15,23.42-8.55,28.39c-3.4,4.97-10.43,11.93,1.33,16.17,2.08,.67,4.18,1.31,6.35,1.66,0,0,9.62-1.07,14.56-1.03,4.56,.03,9.13,.5,13.61,1.27,2.99,.5,6.05,1.23,8.73,2.63,2.56,1.34,4.4,3.3,6.99,4.68,.25,.13,.52,.27,.79,.23,1.49-.21,1.56-5.44,1.44-9.32Z" style="fill:#babcbe;"/><polygon points="205.62 124.91 211.74 126.44 212.51 123.86 208.55 121.88 209.48 120.83 204.09 120.16 202.93 122.74 205.62 124.91" style="fill:#d6c7ac;"/><polygon points="204.17 125.26 205.76 118.84 190.59 113.24 182.2 117.33 184.78 125.21 204.17 125.26" style="fill:#454447;"/><g><path d="M214.47,89.61c.86,.43,2.9,.58,5.03-.25,.43-.17,.72-.58,.71-1.04-.02-1.29-.12-2.58-.31-3.86,1.59-.56,3.44-1.4,3.71-3.07,.09-.53,0-1.06-.09-1.59-.37-2.17-.75-4.34-1.12-6.5-.13-.75-.27-1.52-.68-2.16-.72-1.13-2.1-1.62-3.42-1.85-3.36-.58-7.02,.14-9.62,2.34-.69,.59-1.32,1.29-1.62,2.14-.47,1.32-.12,2.77,.24,4.12,.33,1.25,.66,2.5,.98,3.75,.38,1.44,.92,3.07,2.3,3.61,.73,.29,1.6,.2,2.27,.63,1.17,.75,1.01,2.49,1.62,3.74Z" style="fill:#f3c7b3;"/><path d="M195.09,67.98c-.33-.54-.69-1.06-1.08-1.55-.86-1.06-1.92-1.97-2.61-3.15-.69-1.18-.94-2.78-.11-3.86,.54-.7,1.41-1.05,2.25-1.3,2.79-.82,5.8-.88,8.61-.16,2.68,.68,5.08,1.81,7.78,.81,2.54-.95,4.37-.56,7.02,.38,2.87,1.02,6.72,1.27,9.32,2.71,1.08,.6,1.95,1.55,2.62,2.59,2.34,3.61,2.35,8.59,.03,12.21-.52,.81-1.14,1.56-1.8,2.26-1.35,1.47-2.97,3.28-4.84,3.83-.04-1.67,1.47-6.92,.19-8.28-2.03-2.17-6.62-1.41-9.14-.88-2.75,.58-5.2,2.53-7.92,2.94-1.96,.3-4.46-.66-6.13-1.68-2.06-1.25-3.01-4.9-4.22-6.87Z" style="fill:#2a294a;"/></g><polygon points="228.69 90.46 239.37 99.81 251.39 125.26 233.66 125.37 228.69 90.46" style="fill:#babcbe;"/></g><path d="M206.12,92.83c-13.62-.43-30.32,7.66-33.82,19.44-4.65-11.38-25.81-17.47-39.32-15.68-35.65,4.7-45.77,45.22-29.26,71.3,8.89,14.04,21.25,26.08,34.62,36.79,11.2,8.96,39.86,27.73,39.94,27.65,.09,.06,26.74-21.46,36.99-31.49,12.24-11.98,23.35-25.2,30.79-40.05,13.84-27.6-4.02-66.83-39.95-67.96Z" style="fill:#d67086;"/><path d="M316.42,100.02c-7.65-.24-17.04,4.31-19.01,10.93-2.61-6.39-14.51-9.82-22.1-8.82-20.03,2.64-25.72,25.41-16.44,40.07,4.99,7.89,11.94,14.66,19.46,20.67,6.29,5.04,22.4,15.58,22.45,15.54,.05,.04,15.03-12.06,20.79-17.7,6.88-6.73,13.12-14.16,17.31-22.51,7.78-15.51-2.26-37.56-22.45-38.2Z" style="fill:#eed6d5;"/><path d="M52.56,103.98c-5.79-1.55-13.75,.24-16.43,4.93-.85-5.34-9.3-10.07-15.26-10.66-15.73-1.57-24.14,14.76-19.68,27.59,2.4,6.9,6.48,13.3,11.13,19.23,3.89,4.96,14.28,15.87,14.32,15.85,.03,.04,13.6-6.5,19-9.77,6.44-3.9,12.53-8.44,17.2-14.06,8.69-10.43,4.99-29.02-10.28-33.11Z" style="fill:#d67086;"/><path d="M265.73,21.89c-5.26,.24-11.46,3.85-12.45,8.5-2.13-4.25-10.47-5.96-15.62-4.87-13.6,2.87-16.29,18.79-9.15,28.35,3.84,5.15,8.97,9.42,14.44,13.15,4.58,3.12,16.19,9.5,16.21,9.47,.04,.02,9.67-9.07,13.32-13.24,4.36-4.98,8.25-10.4,10.68-16.35,4.51-11.05-3.54-25.64-17.42-25Z" style="fill:#d67086;"/><path d="M115.3,6.03c-6.4-1.64-15.15,.43-18.05,5.63C96.25,5.79,86.88,.67,80.3,.09c-17.36-1.54-26.42,16.57-21.36,30.65,2.72,7.58,7.3,14.58,12.5,21.06,4.35,5.42,15.93,17.32,15.98,17.3,.03,.04,14.91-7.33,20.82-11,7.05-4.38,13.7-9.46,18.79-15.7,9.46-11.6,5.15-32.04-11.74-36.37Z" style="fill:#eed6d5;"/><polygon points="104.32 94.92 94.46 100.4 76.46 131.29 78.68 137.29 106.01 149.73 109.7 144.17 89.8 129.71 103.79 110.18 104.32 94.92" style="fill:#3b3487;"/><polygon points="109.12 145.06 114.68 147.51 115.57 153.95 112.23 154.84 107.16 148 109.12 145.06" style="fill:#efc0a6;"/><polygon points="316.42 100.02 320.87 97.13 325.55 99.58 325.02 103.79 319.33 103.79 316.42 100.02" style="fill:#f3c7b3;"/><polygon points="243.05 126 247.5 123.11 252.18 125.56 251.65 129.77 245.96 129.77 243.05 126" style="fill:#f3c7b3;"/><polygon points="188.97 94.21 193.42 91.32 198.11 93.77 197.57 97.98 191.89 97.98 188.97 94.21" style="fill:#f3c7b3;"/><polygon points="126.93 97.54 131.37 94.65 136.06 97.1 135.53 101.31 129.84 101.31 126.93 97.54" style="fill:#efc0a6;"/></g></g></svg>