<?xml version="1.0" encoding="UTF-8"?><svg id="Layer_2" xmlns="http://www.w3.org/2000/svg" viewBox="0 0 329.8 305.08"><g id="Capa_1"><g><g><g><path d="M104,104.09l-10.84,20.36s-6.17-9.06-5.72-16.3c.47-7.43,4.46-11.51,10.28-10.33,5.04,1.02,6.28,6.28,6.28,6.28Z" style="fill:#eed6d5;"/><path d="M104,104.09l-10.84,20.36s10.97,.07,16.72-4.35c5.9-4.53,7.06-10.13,2.83-14.3-3.66-3.61-8.71-1.71-8.71-1.71Z" style="fill:#d67086;"/></g><g><path d="M24.52,81.15l8.18,17.4s-9.14-.4-13.74-4.32c-4.72-4.02-5.46-8.73-1.76-12.03,3.2-2.86,7.33-1.06,7.33-1.06Z" style="fill:#eed6d5;"/><path d="M24.52,81.15l8.18,17.4s5.52-7.29,5.44-13.34c-.08-6.2-3.24-9.77-8.13-9.03-4.24,.64-5.49,4.97-5.49,4.97Z" style="fill:#d67086;"/></g><g><path d="M88.49,19.69l8.18,17.41s-9.14-.4-13.74-4.32c-4.73-4.02-5.46-8.73-1.77-12.02,3.2-2.86,7.33-1.06,7.33-1.06Z" style="fill:#eed6d5;"/><path d="M88.49,19.69l8.18,17.41s5.52-7.29,5.44-13.34c-.08-6.2-3.24-9.77-8.13-9.03-4.24,.64-5.49,4.97-5.49,4.97Z" style="fill:#d67086;"/></g><g><path d="M65.96,72.48l-3.55,10.49s-3.63-3.81-3.98-7.28c-.36-3.55,1.22-5.8,4.06-5.7,2.47,.09,3.47,2.48,3.47,2.48Z" style="fill:#eed6d5;"/><path d="M65.96,72.48l-3.55,10.49s5.2-.83,7.58-3.37c2.44-2.61,2.55-5.35,.23-7-2.02-1.43-4.26-.13-4.26-.13Z" style="fill:#d67086;"/></g><g><path d="M141.46,47.8l8.18,17.41s-9.14-.4-13.74-4.32c-4.73-4.02-5.46-8.73-1.77-12.02,3.2-2.86,7.33-1.06,7.33-1.06Z" style="fill:#eed6d5;"/><path d="M141.46,47.8l8.18,17.41s5.52-7.29,5.44-13.34c-.08-6.2-3.24-9.77-8.13-9.03-4.24,.64-5.49,4.97-5.49,4.97Z" style="fill:#d67086;"/></g><g><path d="M192.57,6.17l-10.86,15.87s-4.28-8.08-3.24-14.04c1.07-6.11,4.76-9.13,9.47-7.62,4.08,1.31,4.63,5.78,4.63,5.78Z" style="fill:#eed6d5;"/><path d="M192.57,6.17l-10.86,15.87s9.08,1.06,14.26-2.07c5.31-3.21,6.78-7.75,3.66-11.59-2.7-3.33-7.06-2.22-7.06-2.22Z" style="fill:#d67086;"/></g><g><path d="M140.68,7.67l-3.55,10.49s-3.63-3.81-3.98-7.28c-.36-3.55,1.22-5.8,4.06-5.7,2.47,.09,3.47,2.48,3.47,2.48Z" style="fill:#eed6d5;"/><path d="M140.68,7.67l-3.55,10.49s5.2-.83,7.58-3.37c2.44-2.61,2.55-5.35,.23-7-2.02-1.43-4.26-.13-4.26-.13Z" style="fill:#d67086;"/></g><g><path d="M5.94,133.72l3.55,10.49s3.63-3.81,3.98-7.28c.36-3.56-1.22-5.8-4.06-5.7-2.47,.09-3.47,2.48-3.47,2.48Z" style="fill:#d67086;"/><path d="M5.94,133.72l3.55,10.49s-5.2-.83-7.58-3.37c-2.44-2.61-2.55-5.35-.23-7,2.02-1.43,4.26-.13,4.26-.13Z" style="fill:#eed6d5;"/></g><g><path d="M221.88,31.13l.52,19.22s7.98-4.47,10.33-10.04c2.41-5.72,.95-10.25-3.83-11.53-4.14-1.11-7.02,2.35-7.02,2.35Z" style="fill:#d67086;"/><path d="M221.88,31.13l.52,19.22s-8.21-4.03-10.86-9.46c-2.72-5.58-1.5-10.19,3.2-11.73,4.08-1.33,7.14,1.97,7.14,1.97Z" style="fill:#eed6d5;"/></g><g><path d="M166.56,93.77l3.55,10.49s3.63-3.81,3.98-7.28c.36-3.55-1.22-5.8-4.06-5.7-2.47,.09-3.47,2.48-3.47,2.48Z" style="fill:#d67086;"/><path d="M166.56,93.77l3.55,10.49s-5.2-.82-7.58-3.37c-2.44-2.61-2.55-5.35-.23-7,2.02-1.43,4.26-.13,4.26-.13Z" style="fill:#eed6d5;"/></g></g><g><rect x="126.83" y="191.02" width="197.33" height="114.06" style="fill:#d48256;"/><rect x="126.83" y="191.02" width="197.33" height="14.65" style="fill:#bb744c;"/><rect x="121.19" y="180.97" width="208.61" height="14.48" style="fill:#d48256;"/><polygon points="329.8 180.97 121.19 180.97 165.53 135.26 288.48 135.26 329.8 180.97" style="fill:#d79c5d;"/><polygon points="196.99 153.69 190.34 160.55 260.65 160.55 254.46 153.69 196.99 153.69" style="fill:#b05f3e;"/><polygon points="199.25 156.31 256.84 156.31 254.46 153.69 196.99 153.69 190.34 160.55 195.14 160.55 199.25 156.31" style="fill:#7d402e;"/><path d="M237.48,225.63c-11.78-3.51-20.29,6.19-20.29,6.19,0,0-8.51-9.69-20.29-6.19-13.59,4.05-17.43,17.15-10.08,33.33,7.17,15.78,30.37,27.96,30.37,27.96,0,0,23.2-12.18,30.37-27.96,7.35-16.18,3.51-29.29-10.08-33.33Z" style="fill:#7d402e;"/><g><path d="M221.99,228.61v55.1s-23.2-12.18-30.37-27.95c-7.35-16.18-3.51-29.29,10.08-33.33,11.78-3.51,20.29,6.19,20.29,6.19Z" style="fill:#eed6d5;"/><path d="M221.99,228.61v55.1s23.2-12.18,30.37-27.95c7.35-16.18,3.51-29.29-10.08-33.33-11.78-3.51-20.29,6.19-20.29,6.19Z" style="fill:#d67086;"/></g></g><g><path d="M259.68,123.85c-9.55,5.54-28.05,1.84-28.05,1.84l.39-15.77,28.65-6.6s8.56,15-.99,20.53Z" style="fill:#c38769;"/><path d="M273.11,108.47c-7.76,6.7-25.93,8-25.93,8l-1.79-15.67,24.64-10.17s10.84,11.16,3.08,17.85Z" style="fill:#c38769;"/><path d="M280.39,96c-7.76,6.7-25.93,8-25.93,8l-1.79-15.67,24.64-10.17s10.85,11.16,3.08,17.85Z" style="fill:#c38769;"/><path d="M290.8,32.78l20.92,21.73-45.83,27.62-24.67,16.32s-1.11,13.85,4.59,17.56c9.43,6.15,.14,21.33-11.91,16.72-12.04-4.61-31.38-19.79-29.07-30.12,2.3-10.33,21.92-38.97,27.22-43.78,9.67-8.78,58.76-26.04,58.76-26.04Z" style="fill:#f8b894;"/><path d="M298.78,57.38c-10.38,.43-20.7,.99-31.03,2.15-1.8,.2-3.05-.69-3.69-1.93-5.85,2.38-10.54,6.25-14.51,11.63-4.92,6.66-9.42,13.14-15.41,18.91-4.7,4.52-10.98,9.8-11.38,16.84-.04,.65-.25,4.6,.9,4.76,1.77,.25,3.62-.6,5.19-1.32,4.07-1.89,7.73-4.51,11.73-6.52,.19-.09,.37-.17,.55-.23-.02-1.91,.08-3.22,.08-3.22l24.67-16.32,41.33-24.9c-.56-.07-1.12-.14-1.68-.21-2.31,.12-4.58,.29-6.76,.38Z" style="fill:#dca585;"/><polygon points="239.02 72.49 251.68 91.11 255.26 89.15 239.02 72.49" style="fill:#c38769;"/><polygon points="210.45 105.87 232.91 107.37 233.57 103.34 210.45 105.87" style="fill:#c38769;"/><g><path d="M215.68,109.62l32.52,43.38s-25.45,4.11-40.41-4.09c-15.34-8.4-20.05-20.99-11.74-32.19,7.21-9.71,19.63-7.1,19.63-7.1Z" style="fill:#eed6d5;"/><path d="M215.68,109.62l32.52,43.38s11.08-23.28,7.41-39.94c-3.76-17.08-14.52-25.13-27.61-20.3-11.34,4.19-12.32,16.85-12.32,16.85Z" style="fill:#d67086;"/></g><path d="M263.77,55.2l47.95-.69s-17.76,11.15-20.26,15.87c-3.86,7.27-1.7,12.23-13.37,21.17-10.78,8.26-26.69,18.61-40.06,24.94-10.46,4.95-20.3-3.22-12.33-11.49,6.28-6.51,14.79-12.96,20.06-17.62,5.27-4.66,4.38-22.74,18.01-32.18Z" style="fill:#f8b894;"/><polygon points="313.39 11.7 280.04 32 304.01 65.07 313.39 60.46 313.39 11.7" style="fill:#184869;"/></g></g></g></svg>