<svg width="29" height="38" viewBox="0 0 29 38" fill="none" xmlns="http://www.w3.org/2000/svg">
<path d="M17.6566 14.1253C17.6566 16.0749 16.0749 17.6566 14.1253 17.6566C12.1757 17.6566 10.594 16.0749 10.594 14.1253C10.594 12.1757 12.1757 10.594 14.1253 10.594C16.0749 10.594 17.6566 12.1757 17.6566 14.1253Z" fill="white"/>
<path opacity="0.4" d="M12.3817 36.7258C8.5414 32.0026 0 20.5553 0 14.1253C0 6.32402 6.32402 0 14.1253 0C21.9237 0 28.2506 6.32402 28.2506 14.1253C28.2506 20.5553 19.643 32.0026 15.8689 36.7258C14.964 37.8514 13.2866 37.8514 12.3817 36.7258ZM14.1253 20.0108C17.3771 20.0108 20.0108 17.3771 20.0108 14.1253C20.0108 10.8735 17.3771 8.23976 14.1253 8.23976C10.8735 8.23976 8.23976 10.8735 8.23976 14.1253C8.23976 17.3771 10.8735 20.0108 14.1253 20.0108Z" fill="white"/>
</svg>
