<svg width="37" height="48" viewBox="0 0 37 48" fill="none" xmlns="http://www.w3.org/2000/svg">
<path d="M22.5584 18.0467C22.5584 20.5375 20.5375 22.5584 18.0467 22.5584C15.5559 22.5584 13.535 20.5375 13.535 18.0467C13.535 15.5559 15.5559 13.535 18.0467 13.535C20.5375 13.535 22.5584 15.5559 22.5584 18.0467Z" fill="white"/>
<path opacity="0.4" d="M15.8191 46.9214C10.9126 40.8871 0 26.2617 0 18.0467C0 8.07966 8.07966 0 18.0467 0C28.01 0 36.0934 8.07966 36.0934 18.0467C36.0934 26.2617 25.0962 40.8871 20.2743 46.9214C19.1182 48.3595 16.9752 48.3595 15.8191 46.9214ZM18.0467 25.5662C22.2012 25.5662 25.5662 22.2012 25.5662 18.0467C25.5662 13.8922 22.2012 10.5272 18.0467 10.5272C13.8922 10.5272 10.5272 13.8922 10.5272 18.0467C10.5272 22.2012 13.8922 25.5662 18.0467 25.5662Z" fill="white"/>
</svg>
