<svg width="274" height="55" viewBox="0 0 274 55" fill="none" xmlns="http://www.w3.org/2000/svg">
<g clip-path="url(#clip0_1906_3115)">
<path fill-rule="evenodd" clip-rule="evenodd" d="M100.973 27.1699H112.624V46.0725C109.947 49.0922 106.62 51.4674 102.894 53.0202C99.168 54.5729 95.1386 55.263 91.1078 55.0386C87.2769 55.0132 83.4917 54.2047 79.9852 52.6627C76.4786 51.1208 73.3249 48.878 70.718 46.0725C66.1587 40.8425 63.7084 34.105 63.8437 27.1699C63.8154 23.6265 64.487 20.1123 65.8198 16.8287C67.1527 13.5451 69.1208 10.5566 71.6112 8.03436C74.1294 5.43537 77.1483 3.3732 80.4858 1.97228C83.8233 0.571369 87.4102 -0.139241 91.0301 -0.116666C98.9926 -0.0668932 106.666 2.87101 112.624 8.1508L104.856 17.0005C103.253 15.0255 101.219 13.4427 98.9107 12.3731C96.602 11.3035 94.0792 10.7754 91.535 10.829C87.4452 10.9078 83.5516 12.5954 80.6993 15.5255C79.0949 17.0141 77.8124 18.8151 76.9307 20.8177C76.049 22.8203 75.5869 24.982 75.5727 27.1699C75.5266 29.4026 75.9369 31.6214 76.7783 33.6903C77.6197 35.7592 78.8746 37.6348 80.4662 39.2023C83.2546 41.9899 86.9438 43.6958 90.8747 44.0153C94.3744 44.2036 97.8608 43.4532 100.973 41.8417V27.1699Z" fill="#184869"/>
<path d="M128.975 13.1582H117.362V55.0001H128.975V13.1582Z" fill="#184869"/>
<path fill-rule="evenodd" clip-rule="evenodd" d="M150.606 55.0001L134.1 13.1582H146.8L156.548 39.5132L166.957 13.1582H179.035L162.529 55.0001H150.606Z" fill="#184869"/>
<path fill-rule="evenodd" clip-rule="evenodd" d="M194.842 21.6973V39.5131C194.999 40.9666 195.674 42.3152 196.744 43.3127C197.813 44.3103 199.206 44.8904 200.668 44.9471C201.634 44.9187 202.581 44.6696 203.436 44.2188C204.291 43.7681 205.031 43.1276 205.6 42.3465C207.571 44.3202 209.659 46.1737 211.853 47.897C210.166 49.9642 208.072 51.6619 205.7 52.884C203.327 54.1062 200.729 54.8265 198.065 55C196.125 55.0843 194.187 54.7657 192.376 54.0642C190.564 53.3627 188.918 52.2937 187.54 50.9245C186.052 49.4393 184.9 47.6517 184.163 45.6829C183.426 43.7141 183.121 41.61 183.268 39.5131V0H194.92V13.1581H205.017V21.6973H194.842Z" fill="#184869"/>
<path d="M178.609 0H117.362V8.53917H178.609V0Z" fill="#7DBDA2"/>
</g>
<defs>
<clipPath id="clip0_1906_3115">
<rect width="274" height="55" fill="white"/>
</clipPath>
</defs>
</svg>
