<svg width="202" height="75" viewBox="0 0 202 75" fill="none" xmlns="http://www.w3.org/2000/svg">
<g clip-path="url(#clip0_146_165)">
<path d="M156.248 0H72.8452V11.6177H156.248V0Z" fill="#3CC78C"/>
<path fill-rule="evenodd" clip-rule="evenodd" d="M50.675 36.9653H66.5109V62.7856C59.2027 70.9206 50.1392 74.9868 37.2092 74.9868C26.388 74.9868 16.1157 70.0414 9.46461 62.7856C2.81088 55.5298 0 45.9532 0 37.1766C0 28.3999 3.18566 18.3823 10.6708 11.0896C18.1533 3.79687 26.6836 0 37.262 0C47.8404 0 57.0252 3.4721 66.5109 11.0896L56.1279 23.1561C55.0114 21.6802 49.2207 14.7861 38.0063 14.7861C32.6801 14.7861 27.2009 16.6819 22.9146 20.925C18.6283 25.1681 15.96 30.235 15.96 37.1766C15.96 44.1181 18.631 49.8108 22.6058 53.6208C26.5806 57.4309 32.2446 60.1584 36.7895 60.1584C42.8441 60.1584 47.2254 59.0706 50.6777 57.0349V36.9653H50.675Z" fill="white"/>
<path d="M88.6812 17.9546H72.8452V74.9868H88.6812V17.9546Z" fill="white"/>
<path fill-rule="evenodd" clip-rule="evenodd" d="M178.421 29.5723V53.8638C178.421 53.8638 179.221 61.1829 186.339 61.2568C189.841 61.2938 192.145 58.9597 193.035 57.7398C193.732 58.9597 201.565 65.2808 201.565 65.2808C197.392 70.5642 190.129 74.7228 182.739 74.9868C176.993 75.1927 172.292 73.1332 168.384 69.4235C164.475 65.7138 162.522 60.6601 162.585 53.8638V0H178.421V17.9546H192.145V29.5723H178.421Z" fill="white"/>
<path fill-rule="evenodd" clip-rule="evenodd" d="M118.136 74.9868L95.6492 17.9546H112.963L126.265 53.8638L140.412 17.9546H156.881L134.394 74.9868H118.136Z" fill="white"/>
</g>
<defs>
<clipPath id="clip0_146_165">
<rect width="201.562" height="75" fill="white"/>
</clipPath>
</defs>
</svg>
