<svg width="20" height="20" viewBox="0 0 20 20" fill="none" xmlns="http://www.w3.org/2000/svg">
<path d="M17.1429 3.57143C17.1429 4.75446 16.183 5.71429 15 5.71429H2.14286C0.959375 5.71429 0 4.75446 0 3.57143V2.14286C0 0.959375 0.959375 0 2.14286 0H15C16.183 0 17.1429 0.959375 17.1429 2.14286V3.57143ZM11.4286 17.8571C11.4286 19.0402 10.4687 20 9.28571 20H2.14286C0.959375 20 0 19.0402 0 17.8571V16.4286C0 15.2455 0.959375 14.2857 2.14286 14.2857H9.28571C10.4687 14.2857 11.4286 15.2455 11.4286 16.4286V17.8571Z" fill="#355070"/>
<path opacity="0.4" d="M2.14286 12.8574C0.959375 12.8574 0 11.8975 0 10.7145V9.28592C0 8.10289 0.959375 7.14307 2.14286 7.14307H17.8571C19.0402 7.14307 20 8.10289 20 9.28592V10.7145C20 11.8975 19.0402 12.8574 17.8571 12.8574H2.14286Z" fill="#355070"/>
</svg>
