<svg width="40" height="40" viewBox="0 0 40 40" fill="none" xmlns="http://www.w3.org/2000/svg">
<path d="M22.8574 22.8572H31.4289V25.7143H37.1431V22.8572H40.0003V34.2857H31.4289V31.4286H28.5717V40H22.8574V22.8572ZM34.286 40H31.4289V37.1429H34.286V40ZM40.0003 40H37.1431V37.1429H40.0003V40Z" fill="white"/>
<path opacity="0.4" d="M12.8571 0C15.2232 0 17.1429 1.91875 17.1429 4.28571V12.8571C17.1429 15.2232 15.2232 17.1429 12.8571 17.1429H4.28571C1.91875 17.1429 0 15.2232 0 12.8571V4.28571C0 1.91875 1.91875 0 4.28571 0H12.8571ZM11.4286 5.71429H5.71429V11.4286H11.4286V5.71429ZM12.8571 22.8571C15.2232 22.8571 17.1429 24.7768 17.1429 27.1429V35.7143C17.1429 38.0804 15.2232 40 12.8571 40H4.28571C1.91875 40 0 38.0804 0 35.7143V27.1429C0 24.7768 1.91875 22.8571 4.28571 22.8571H12.8571ZM11.4286 28.5714H5.71429V34.2857H11.4286V28.5714ZM22.8571 4.28571C22.8571 1.91875 24.7768 0 27.1429 0H35.7143C38.0804 0 40 1.91875 40 4.28571V12.8571C40 15.2232 38.0804 17.1429 35.7143 17.1429H27.1429C24.7768 17.1429 22.8571 15.2232 22.8571 12.8571V4.28571ZM28.5714 11.4286H34.2857V5.71429H28.5714V11.4286Z" fill="white"/>
</svg>
