<svg width="29" height="30" viewBox="0 0 29 30" fill="none" xmlns="http://www.w3.org/2000/svg">
<path d="M28.1952 9.76172C28.3886 10.2656 28.2245 10.834 27.8261 11.2031L25.2889 13.5117C25.3534 13.998 25.3886 14.4961 25.3886 14.9473C25.3886 15.5039 25.3534 16.002 25.2889 16.4883L27.8261 18.7969C28.2245 19.166 28.3886 19.7285 28.1952 20.2383C27.9374 20.9355 27.6268 21.6094 27.2753 22.248L26.9999 22.7227C26.6132 23.3672 26.1796 23.9766 25.705 24.5566C25.3534 24.9727 24.785 25.1191 24.2694 24.9551L21.0057 23.9121C20.2206 24.5156 19.3007 25.0195 18.4276 25.4062L17.6952 28.752C17.578 29.2793 17.1679 29.6543 16.6288 29.7949C15.8202 29.9297 14.9882 30 14.0858 30C13.289 30 12.4569 29.9297 11.6483 29.7949C11.1093 29.6543 10.6991 29.2793 10.5819 28.752L9.8495 25.4062C8.92372 25.0195 8.05653 24.5156 7.27137 23.9121L4.01004 24.9551C3.49208 25.1191 2.92079 24.9727 2.57391 24.5566C2.09872 23.9766 1.66512 23.3672 1.2784 22.7227L1.00418 22.248C0.64852 21.6094 0.339145 20.9355 0.079575 20.2383C-0.110269 19.7344 0.0496922 19.166 0.451645 18.7969L2.98641 16.4883C2.92196 16.002 2.88856 15.5039 2.88856 15C2.88856 14.4961 2.92196 13.998 2.98641 13.5117L0.451645 11.2031C0.0496922 10.834 -0.110269 10.2715 0.079575 9.76172C0.339145 9.06445 0.649106 8.39062 1.00418 7.75195L1.27782 7.27734C1.66454 6.63281 2.09872 6.02344 2.57391 5.44629C2.92079 5.02734 3.49208 4.88203 4.01004 5.04727L7.27137 6.08789C8.05653 5.48203 8.92372 4.97813 9.8495 4.59551L10.5819 1.2498C10.6991 0.717773 11.1093 0.295312 11.6483 0.205664C12.4569 0.0703711 13.289 0 14.0858 0C14.9882 0 15.8202 0.0703711 16.6288 0.205664C17.1679 0.295312 17.578 0.717773 17.6952 1.2498L18.4276 4.59551C19.3007 4.97813 20.2206 5.48203 21.0057 6.08789L24.2694 5.04727C24.785 4.88203 25.3534 5.02734 25.705 5.44629C26.1796 6.02344 26.6132 6.63281 26.9999 7.27734L27.2753 7.75195C27.6268 8.39062 27.9374 9.06445 28.1952 9.76172ZM14.1386 19.6875C16.7284 19.6875 18.8261 17.5898 18.8261 14.9473C18.8261 12.4102 16.7284 10.2598 14.1386 10.2598C11.5487 10.2598 9.45106 12.4102 9.45106 14.9473C9.45106 17.5898 11.5487 19.6875 14.1386 19.6875Z" fill="#355070"/>
<path opacity="0.4" d="M16.9512 15C16.9512 16.5527 15.6914 17.8125 14.1387 17.8125C12.5859 17.8125 11.3262 16.5527 11.3262 15C11.3262 13.4473 12.5859 12.1875 14.1387 12.1875C15.6914 12.1875 16.9512 13.4473 16.9512 15Z" fill="#355070"/>
</svg>
